Messapia-Bold.ufo
<glyph name="exclam" format="2">
  <advance width="278"/>
  <unicode hex="0021"/>
  <note>
exclam
</note>
  <outline>
    <contour>
      <point x="70" y="450" type="line"/>
      <point x="80" y="234" type="line"/>
      <point x="198" y="234" type="line"/>
      <point x="208" y="450" type="line"/>
      <point x="208" y="734" type="line"/>
      <point x="70" y="734" type="line"/>
    </contour>
    <component base="period"/>
  </outline>
</glyph>
<glyph name="numbersign" format="2">
  <advance width="1116"/>
  <unicode hex="0023"/>
  <note>
numbersign
</note>
  <outline>
    <contour>
      <point x="1012" y="433" type="line"/>
      <point x="1012" y="561" type="line"/>
      <point x="128" y="561" type="line"/>
      <point x="128" y="433" type="line"/>
    </contour>
    <contour>
      <point x="918" y="162" type="line"/>
      <point x="918" y="290" type="line"/>
      <point x="70" y="290" type="line"/>
      <point x="70" y="162" type="line"/>
    </contour>
    <contour>
      <point x="730" y="715" type="line"/>
      <point x="510" y="0" type="line"/>
      <point x="666" y="0" type="line"/>
      <point x="886" y="715" type="line"/>
    </contour>
    <contour>
      <point x="406" y="715" type="line"/>
      <point x="186" y="0" type="line"/>
      <point x="342" y="0" type="line"/>
      <point x="562" y="715" type="line"/>
    </contour>
  </outline>
</glyph>
<glyph name="dollar" format="2">
  <advance width="953"/>
  <unicode hex="0024"/>
  <note>
dollar
</note>
  <outline>
    <contour>
      <point x="109" y="246" type="curve"/>
      <point x="56" y="104" type="line"/>
      <point x="187" y="39"/>
      <point x="322" y="2"/>
      <point x="497" y="2" type="curve" smooth="yes"/>
      <point x="737" y="2"/>
      <point x="880" y="82"/>
      <point x="880" y="216" type="curve" smooth="yes"/>
      <point x="880" y="353"/>
      <point x="769" y="412"/>
      <point x="593" y="422" type="curve" smooth="yes"/>
      <point x="404" y="433" type="line" smooth="yes"/>
      <point x="303" y="439"/>
      <point x="266" y="459"/>
      <point x="266" y="501" type="curve" smooth="yes"/>
      <point x="266" y="548"/>
      <point x="353" y="563"/>
      <point x="447" y="563" type="curve" smooth="yes"/>
      <point x="593" y="563"/>
      <point x="691" y="543"/>
      <point x="792" y="484" type="curve"/>
      <point x="846" y="615" type="line"/>
      <point x="735" y="671"/>
      <point x="604" y="702"/>
      <point x="461" y="702" type="curve" smooth="yes"/>
      <point x="299" y="702"/>
      <point x="83" y="649"/>
      <point x="83" y="490" type="curve" smooth="yes"/>
      <point x="83" y="359"/>
      <point x="206" y="297"/>
      <point x="368" y="285" type="curve" smooth="yes"/>
      <point x="548" y="272" type="line" smooth="yes"/>
      <point x="651" y="265"/>
      <point x="702" y="263"/>
      <point x="702" y="214" type="curve" smooth="yes"/>
      <point x="702" y="169"/>
      <point x="637" y="152"/>
      <point x="497" y="152" type="curve" smooth="yes"/>
      <point x="334" y="152"/>
      <point x="225" y="181"/>
    </contour>
    <contour>
      <point x="412" y="622" type="line"/>
      <point x="550" y="622" type="line"/>
      <point x="550" y="795" type="line"/>
      <point x="412" y="795" type="line"/>
    </contour>
    <contour>
      <point x="412" y="-103" type="line"/>
      <point x="550" y="-103" type="line"/>
      <point x="550" y="70" type="line"/>
      <point x="412" y="70" type="line"/>
    </contour>
  </outline>
</glyph>
<glyph name="percent" format="2">
  <advance width="1345"/>
  <unicode hex="0025"/>
  <note>
percent
</note>
  <outline>
    <contour>
      <point x="308" y="1" type="line"/>
      <point x="471" y="1" type="line"/>
      <point x="1036" y="700" type="line"/>
      <point x="873" y="700" type="line"/>
    </contour>
    <component base="zerosuperior" xOffset="20" yOffset="17"/>
    <component base="zerosuperior" xOffset="740" yOffset="-333"/>
  </outline>
</glyph>
<glyph name="ampersand" format="2">
  <advance width="1058"/>
  <unicode hex="0026"/>
  <note>
ampersand
</note>
  <outline>
    <contour>
      <point x="900" y="322" type="curve" smooth="yes"/>
      <point x="900" y="334" type="line"/>
      <point x="755" y="334" type="line"/>
      <point x="755" y="318" type="line" smooth="yes"/>
      <point x="755" y="175"/>
      <point x="651" y="110"/>
      <point x="428" y="110" type="curve" smooth="yes"/>
      <point x="310" y="110"/>
      <point x="195" y="132"/>
      <point x="195" y="223" type="curve" smooth="yes"/>
      <point x="195" y="277"/>
      <point x="241" y="308"/>
      <point x="304" y="308" type="curve" smooth="yes"/>
      <point x="1008" y="308" type="line"/>
      <point x="1008" y="432" type="line"/>
      <point x="297" y="432" type="line" smooth="yes"/>
      <point x="244" y="432"/>
      <point x="203" y="456"/>
      <point x="203" y="502" type="curve" smooth="yes"/>
      <point x="203" y="564"/>
      <point x="273" y="591"/>
      <point x="402" y="591" type="curve" smooth="yes"/>
      <point x="568" y="591"/>
      <point x="671" y="556"/>
      <point x="744" y="505" type="curve"/>
      <point x="816" y="617" type="line"/>
      <point x="723" y="669"/>
      <point x="596" y="715"/>
      <point x="420" y="715" type="curve" smooth="yes"/>
      <point x="189" y="715"/>
      <point x="44" y="639"/>
      <point x="44" y="513" type="curve" smooth="yes"/>
      <point x="44" y="440"/>
      <point x="109" y="379"/>
      <point x="190" y="368" type="curve"/>
      <point x="190" y="366" type="line"/>
      <point x="84" y="346"/>
      <point x="30" y="280"/>
      <point x="30" y="205" type="curve" smooth="yes"/>
      <point x="30" y="65"/>
      <point x="168" y="-19"/>
      <point x="427" y="-19" type="curve" smooth="yes"/>
      <point x="748" y="-19"/>
      <point x="900" y="124"/>
    </contour>
  </outline>
</glyph>
<glyph name="quotesingle" format="2">
  <advance width="251"/>
  <unicode hex="0027"/>
  <note>
quotesingle
</note>
  <outline>
    <contour>
      <point x="50" y="625" type="line"/>
      <point x="62" y="484" type="line"/>
      <point x="189" y="484" type="line"/>
      <point x="201" y="625" type="line"/>
      <point x="201" y="750" type="line"/>
      <point x="50" y="750" type="line"/>
    </contour>
  </outline>
</glyph>
<glyph name="parenleft" format="2">
  <advance width="413"/>
  <unicode hex="0028"/>
  <note>
parenleft
</note>
  <outline>
    <contour>
      <point x="283" y="-250" type="curve"/>
      <point x="467" y="-250" type="line"/>
      <point x="469" y="-248" type="line"/>
      <point x="321" y="-118"/>
      <point x="212" y="59"/>
      <point x="212" y="259" type="curve" smooth="yes"/>
      <point x="212" y="457"/>
      <point x="317" y="634"/>
      <point x="465" y="762" type="curve"/>
      <point x="464" y="764" type="line"/>
      <point x="283" y="764" type="line"/>
      <point x="141" y="643"/>
      <point x="50" y="443"/>
      <point x="50" y="259" type="curve" smooth="yes"/>
      <point x="50" y="73"/>
      <point x="142" y="-129"/>
    </contour>
  </outline>
</glyph>
<glyph name="asterisk" format="2">
  <advance width="881"/>
  <unicode hex="002A"/>
  <note>
asterisk
</note>
  <outline>
    <contour>
      <point x="585" y="169" type="line"/>
      <point x="685" y="258" type="line"/>
      <point x="547" y="414" type="line"/>
      <point x="745" y="442" type="line"/>
      <point x="715" y="576" type="line"/>
      <point x="501" y="517" type="line"/>
      <point x="511" y="734" type="line"/>
      <point x="372" y="734" type="line"/>
      <point x="382" y="517" type="line"/>
      <point x="169" y="576" type="line"/>
      <point x="139" y="442" type="line"/>
      <point x="336" y="414" type="line"/>
      <point x="199" y="258" type="line"/>
      <point x="299" y="169" type="line"/>
      <point x="444" y="358" type="line"/>
    </contour>
  </outline>
</glyph>
<glyph name="plus" format="2">
  <advance width="740"/>
  <unicode hex="002B"/>
  <note>
plus
</note>
  <outline>
    <contour>
      <point x="60" y="271" type="line"/>
      <point x="680" y="271" type="line"/>
      <point x="680" y="399" type="line"/>
      <point x="60" y="399" type="line"/>
    </contour>
    <contour>
      <point x="444" y="50" type="line"/>
      <point x="444" y="620" type="line"/>
      <point x="296" y="620" type="line"/>
      <point x="296" y="50" type="line"/>
    </contour>
  </outline>
</glyph>
<glyph name="comma" format="2">
  <advance width="300"/>
  <unicode hex="002C"/>
  <note>
comma
</note>
  <outline>
    <contour>
      <point x="91" y="-95" type="line"/>
      <point x="167" y="-95" type="line"/>
      <point x="186" y="-54" type="line" smooth="yes"/>
      <point x="202" y="-19"/>
      <point x="225" y="28"/>
      <point x="225" y="69" type="curve" smooth="yes"/>
      <point x="225" y="114"/>
      <point x="192" y="155"/>
      <point x="137" y="155" type="curve" smooth="yes"/>
      <point x="86" y="155"/>
      <point x="44" y="123"/>
      <point x="44" y="69" type="curve" smooth="yes"/>
      <point x="44" y="8"/>
      <point x="93" y="-11"/>
      <point x="127" y="-11" type="curve"/>
    </contour>
  </outline>
</glyph>
<glyph name="hyphen" format="2">
  <advance width="460"/>
  <unicode hex="002D"/>
  <note>
hyphen
</note>
  <outline>
    <contour>
      <point x="40" y="340" type="line"/>
      <point x="40" y="205" type="line"/>
      <point x="420" y="206" type="line"/>
      <point x="420" y="340" type="line"/>
    </contour>
  </outline>
</glyph>
<glyph name="period" format="2">
  <advance width="278"/>
  <unicode hex="002E"/>
  <note>
period
</note>
  <outline>
    <contour>
      <point x="139" y="-10" type="curve" smooth="yes"/>
      <point x="84.333" y="-10"/>
      <point x="50" y="18.667"/>
      <point x="50" y="72" type="curve" smooth="yes"/>
      <point x="50" y="125.333"/>
      <point x="84.333" y="154"/>
      <point x="139" y="154" type="curve" smooth="yes"/>
      <point x="193.667" y="154"/>
      <point x="228" y="125.333"/>
      <point x="228" y="72" type="curve" smooth="yes"/>
      <point x="228" y="18.667"/>
      <point x="193.667" y="-10"/>
    </contour>
  </outline>
</glyph>
<glyph name="slash" format="2">
  <advance width="520"/>
  <unicode hex="002F"/>
  <note>
slash
</note>
  <outline>
    <contour>
      <point x="338" y="715" type="line"/>
      <point x="21" y="-182" type="line"/>
      <point x="174" y="-182" type="line"/>
      <point x="490" y="715" type="line"/>
    </contour>
  </outline>
</glyph>
<glyph name="zero" format="2">
  <advance width="1015"/>
  <unicode hex="0030"/>
  <note>
zero
</note>
  <outline>
    <contour>
      <point x="508" y="-15" type="curve" smooth="yes"/>
      <point x="783" y="-15"/>
      <point x="955" y="127"/>
      <point x="955" y="353" type="curve" smooth="yes"/>
      <point x="955" y="575"/>
      <point x="783" y="715"/>
      <point x="508" y="715" type="curve" smooth="yes"/>
      <point x="239" y="715"/>
      <point x="70" y="575"/>
      <point x="70" y="353" type="curve" smooth="yes"/>
      <point x="70" y="127"/>
      <point x="239" y="-15"/>
    </contour>
    <contour>
      <point x="245" y="350" type="curve" smooth="yes"/>
      <point x="245" y="495"/>
      <point x="339" y="575"/>
      <point x="508" y="575" type="curve" smooth="yes"/>
      <point x="683" y="575"/>
      <point x="780" y="497"/>
      <point x="780" y="355" type="curve" smooth="yes"/>
      <point x="780" y="206"/>
      <point x="683" y="125"/>
      <point x="508" y="125" type="curve" smooth="yes"/>
      <point x="339" y="125"/>
      <point x="245" y="205"/>
    </contour>
  </outline>
</glyph>
<glyph name="one" format="2">
  <advance width="594"/>
  <unicode hex="0031"/>
  <note>
one
</note>
  <outline>
    <contour>
      <point x="339" y="522" type="curve"/>
      <point x="339" y="0" type="line"/>
      <point x="514" y="0" type="line"/>
      <point x="514" y="700" type="line"/>
      <point x="372" y="700" type="line"/>
      <point x="283" y="621"/>
      <point x="178" y="566"/>
      <point x="55" y="551" type="curve"/>
      <point x="55" y="400" type="line"/>
      <point x="178" y="419"/>
      <point x="272" y="465"/>
    </contour>
  </outline>
</glyph>
<glyph name="two" format="2">
  <advance width="908"/>
  <unicode hex="0032"/>
  <note>
two
</note>
  <outline>
    <contour>
      <point x="70" y="40" type="curve" smooth="yes"/>
      <point x="70" y="0" type="line"/>
      <point x="828" y="0" type="line"/>
      <point x="828" y="135" type="line"/>
      <point x="269" y="135" type="line"/>
      <point x="269" y="199"/>
      <point x="361" y="210"/>
      <point x="469" y="242" type="curve" smooth="yes"/>
      <point x="627" y="288"/>
      <point x="820" y="314"/>
      <point x="820" y="505" type="curve" smooth="yes"/>
      <point x="820" y="641"/>
      <point x="684" y="719"/>
      <point x="453" y="719" type="curve" smooth="yes"/>
      <point x="332" y="719"/>
      <point x="208" y="686"/>
      <point x="99" y="640" type="curve"/>
      <point x="104" y="494" type="line"/>
      <point x="199" y="549"/>
      <point x="320" y="587"/>
      <point x="447" y="587" type="curve" smooth="yes"/>
      <point x="555" y="587"/>
      <point x="640" y="564"/>
      <point x="640" y="502" type="curve" smooth="yes"/>
      <point x="640" y="441"/>
      <point x="573" y="413"/>
      <point x="450" y="378" type="curve" smooth="yes"/>
      <point x="313" y="339"/>
      <point x="70" y="300"/>
    </contour>
  </outline>
</glyph>
<glyph name="three" format="2">
  <advance width="884"/>
  <unicode hex="0033"/>
  <note>
three
</note>
  <outline>
    <contour>
      <point x="395" y="-15" type="curve" smooth="yes"/>
      <point x="652" y="-15"/>
      <point x="814" y="75"/>
      <point x="814" y="197" type="curve" smooth="yes"/>
      <point x="814" y="290"/>
      <point x="770" y="345"/>
      <point x="656" y="368" type="curve"/>
      <point x="763" y="404"/>
      <point x="787" y="455"/>
      <point x="787" y="511" type="curve" smooth="yes"/>
      <point x="787" y="649"/>
      <point x="635" y="715"/>
      <point x="412" y="715" type="curve" smooth="yes"/>
      <point x="269" y="715"/>
      <point x="139" y="674"/>
      <point x="60" y="641" type="curve"/>
      <point x="83" y="512" type="line"/>
      <point x="174" y="545"/>
      <point x="283" y="573"/>
      <point x="431" y="573" type="curve" smooth="yes"/>
      <point x="572" y="573"/>
      <point x="627" y="548"/>
      <point x="627" y="499" type="curve" smooth="yes"/>
      <point x="627" y="441"/>
      <point x="558" y="425"/>
      <point x="410" y="425" type="curve" smooth="yes"/>
      <point x="265" y="425" type="line"/>
      <point x="265" y="296" type="line"/>
      <point x="410" y="296" type="line" smooth="yes"/>
      <point x="565" y="296"/>
      <point x="634" y="289"/>
      <point x="634" y="214" type="curve" smooth="yes"/>
      <point x="634" y="154"/>
      <point x="558" y="124"/>
      <point x="416" y="124" type="curve" smooth="yes"/>
      <point x="261" y="124"/>
      <point x="172" y="147"/>
      <point x="93" y="186" type="curve"/>
      <point x="60" y="54" type="line"/>
      <point x="160" y="7"/>
      <point x="262" y="-15"/>
    </contour>
  </outline>
</glyph>
<glyph name="four" format="2">
  <advance width="913"/>
  <unicode hex="0034"/>
  <note>
four
</note>
  <outline>
    <contour>
      <point x="711" y="0" type="line"/>
      <point x="711" y="158" type="line"/>
      <point x="883" y="158" type="line"/>
      <point x="883" y="283" type="line"/>
      <point x="711" y="283" type="line"/>
      <point x="711" y="700" type="line"/>
      <point x="552" y="700" type="line"/>
      <point x="15" y="274" type="line"/>
      <point x="15" y="158" type="line"/>
      <point x="541" y="158" type="line"/>
      <point x="541" y="0" type="line"/>
    </contour>
    <contour>
      <point x="254" y="283" type="line"/>
      <point x="541" y="518" type="line"/>
      <point x="541" y="283" type="line"/>
    </contour>
  </outline>
</glyph>
<glyph name="five" format="2">
  <advance width="916"/>
  <unicode hex="0035"/>
  <note>
five
</note>
  <outline>
    <contour>
      <point x="452" y="-15" type="curve" smooth="yes"/>
      <point x="610" y="-15"/>
      <point x="861" y="50"/>
      <point x="861" y="246" type="curve" smooth="yes"/>
      <point x="861" y="384"/>
      <point x="703" y="488"/>
      <point x="521" y="488" type="curve" smooth="yes"/>
      <point x="401" y="488"/>
      <point x="313" y="467"/>
      <point x="232" y="401" type="curve"/>
      <point x="232" y="562" type="line"/>
      <point x="778" y="562" type="line"/>
      <point x="778" y="700" type="line"/>
      <point x="82" y="700" type="line"/>
      <point x="82" y="262" type="line"/>
      <point x="221" y="262" type="line"/>
      <point x="296" y="324"/>
      <point x="379" y="349"/>
      <point x="483" y="349" type="curve" smooth="yes"/>
      <point x="599" y="349"/>
      <point x="681" y="316"/>
      <point x="681" y="247" type="curve" smooth="yes"/>
      <point x="681" y="140"/>
      <point x="540" y="125"/>
      <point x="433" y="125" type="curve" smooth="yes"/>
      <point x="334" y="125"/>
      <point x="200" y="157"/>
      <point x="84" y="201" type="curve"/>
      <point x="77" y="58" type="line"/>
      <point x="189" y="17"/>
      <point x="305" y="-15"/>
    </contour>
  </outline>
</glyph>
<glyph name="six" format="2">
  <advance width="969"/>
  <unicode hex="0036"/>
  <note>
six
</note>
  <outline>
    <contour>
      <point x="497" y="-20" type="curve" smooth="yes"/>
      <point x="754" y="-20"/>
      <point x="902" y="69"/>
      <point x="902" y="238" type="curve" smooth="yes"/>
      <point x="902" y="394"/>
      <point x="764" y="478"/>
      <point x="523" y="478" type="curve" smooth="yes"/>
      <point x="404" y="478"/>
      <point x="304" y="458"/>
      <point x="244" y="397" type="curve"/>
      <point x="257" y="524"/>
      <point x="375" y="580"/>
      <point x="531" y="580" type="curve" smooth="yes"/>
      <point x="640" y="580"/>
      <point x="750" y="555"/>
      <point x="839" y="511" type="curve"/>
      <point x="862" y="656" type="line"/>
      <point x="783" y="695"/>
      <point x="648" y="715"/>
      <point x="543" y="715" type="curve" smooth="yes"/>
      <point x="215" y="715"/>
      <point x="75" y="571"/>
      <point x="75" y="326" type="curve" smooth="yes"/>
      <point x="75" y="99.333"/>
      <point x="219.667" y="-20"/>
    </contour>
    <contour>
      <point x="277" y="241" type="curve" smooth="yes"/>
      <point x="277" y="316"/>
      <point x="342" y="348"/>
      <point x="508" y="348" type="curve" smooth="yes"/>
      <point x="659" y="348"/>
      <point x="727" y="316"/>
      <point x="727" y="241" type="curve" smooth="yes"/>
      <point x="727" y="155"/>
      <point x="659" y="120"/>
      <point x="508" y="120" type="curve" smooth="yes"/>
      <point x="342" y="120"/>
      <point x="277" y="155"/>
    </contour>
  </outline>
</glyph>
<glyph name="seven" format="2">
  <advance width="809"/>
  <unicode hex="0037"/>
  <note>
seven
</note>
  <outline>
    <contour>
      <point x="273" y="0" type="curve"/>
      <point x="447" y="0" type="line"/>
      <point x="460" y="284"/>
      <point x="554" y="414"/>
      <point x="764" y="569" type="curve"/>
      <point x="764" y="700" type="line"/>
      <point x="44" y="697" type="line"/>
      <point x="44" y="558" type="line"/>
      <point x="530" y="558" type="line"/>
      <point x="311" y="386"/>
      <point x="288" y="199"/>
    </contour>
  </outline>
</glyph>
<glyph name="eight" format="2">
  <advance width="976"/>
  <unicode hex="0038"/>
  <note>
eight
</note>
  <outline>
    <contour>
      <point x="493" y="-15" type="curve" smooth="yes"/>
      <point x="755" y="-15"/>
      <point x="906" y="58"/>
      <point x="906" y="199" type="curve" smooth="yes"/>
      <point x="906" y="282"/>
      <point x="852" y="342"/>
      <point x="748" y="375" type="curve"/>
      <point x="831" y="402"/>
      <point x="875" y="456"/>
      <point x="875" y="529" type="curve" smooth="yes"/>
      <point x="875" y="688"/>
      <point x="631" y="715"/>
      <point x="493" y="715" type="curve" smooth="yes"/>
      <point x="345" y="715"/>
      <point x="101" y="688"/>
      <point x="101" y="529" type="curve" smooth="yes"/>
      <point x="101" y="456"/>
      <point x="145" y="402"/>
      <point x="228" y="375" type="curve"/>
      <point x="124" y="342"/>
      <point x="70" y="282"/>
      <point x="70" y="199" type="curve" smooth="yes"/>
      <point x="70" y="58"/>
      <point x="221" y="-15"/>
    </contour>
    <contour>
      <point x="251" y="204" type="curve" smooth="yes"/>
      <point x="251" y="278"/>
      <point x="316" y="304"/>
      <point x="493" y="304" type="curve" smooth="yes"/>
      <point x="663" y="304"/>
      <point x="725" y="278"/>
      <point x="725" y="204" type="curve" smooth="yes"/>
      <point x="725" y="129"/>
      <point x="663" y="102"/>
      <point x="493" y="102" type="curve" smooth="yes"/>
      <point x="316" y="102"/>
      <point x="251" y="129"/>
    </contour>
    <contour>
      <point x="262" y="521" type="curve" smooth="yes"/>
      <point x="262" y="577"/>
      <point x="324" y="601"/>
      <point x="493" y="601" type="curve" smooth="yes"/>
      <point x="655" y="601"/>
      <point x="714" y="577"/>
      <point x="714" y="521" type="curve" smooth="yes"/>
      <point x="714" y="455"/>
      <point x="655" y="432"/>
      <point x="493" y="432" type="curve" smooth="yes"/>
      <point x="324" y="432"/>
      <point x="262" y="455"/>
    </contour>
  </outline>
</glyph>
<glyph name="greater" format="2">
  <advance width="777"/>
  <unicode hex="003E"/>
  <note>
greater
</note>
  <outline>
    <contour>
      <point x="100" y="158" type="line"/>
      <point x="100" y="11" type="line"/>
      <point x="747" y="247" type="line"/>
      <point x="747" y="375" type="line"/>
      <point x="100" y="611" type="line"/>
      <point x="100" y="465" type="line"/>
      <point x="509" y="311" type="line"/>
    </contour>
  </outline>
</glyph>
<glyph name="question" format="2">
  <advance width="741"/>
  <unicode hex="003F"/>
  <note>
question
</note>
  <outline>
    <contour>
      <point x="397" y="320" type="line"/>
      <point x="455" y="322" type="line" smooth="yes"/>
      <point x="601" y="327"/>
      <point x="692" y="404"/>
      <point x="692" y="522" type="curve" smooth="yes"/>
      <point x="692" y="652"/>
      <point x="574" y="734"/>
      <point x="387" y="734" type="curve" smooth="yes"/>
      <point x="254" y="734"/>
      <point x="128" y="694"/>
      <point x="61" y="631" type="curve"/>
      <point x="113" y="508" type="line"/>
      <point x="172" y="557"/>
      <point x="258" y="602"/>
      <point x="395" y="602" type="curve" smooth="yes"/>
      <point x="505" y="602"/>
      <point x="541" y="583"/>
      <point x="541" y="526" type="curve" smooth="yes"/>
      <point x="541" y="468"/>
      <point x="506" y="448"/>
      <point x="380" y="447" type="curve" smooth="yes"/>
      <point x="263" y="446" type="line"/>
      <point x="263" y="226" type="line"/>
      <point x="397" y="226" type="line"/>
    </contour>
    <component base="period" xOffset="202" yOffset="-4"/>
  </outline>
</glyph>
<glyph name="at" format="2">
  <advance width="1244"/>
  <unicode hex="0040"/>
  <note>
at
</note>
  <outline>
    <contour>
      <point x="626" y="-198" type="curve" smooth="yes"/>
      <point x="738" y="-198"/>
      <point x="837" y="-175"/>
      <point x="916" y="-136" type="curve"/>
      <point x="908" y="-21" type="line"/>
      <point x="825" y="-64"/>
      <point x="732" y="-82"/>
      <point x="629" y="-82" type="curve" smooth="yes"/>
      <point x="400" y="-82"/>
      <point x="272" y="40"/>
      <point x="272" y="218" type="curve" smooth="yes"/>
      <point x="272" y="400"/>
      <point x="402" y="519"/>
      <point x="643" y="519" type="curve" smooth="yes"/>
      <point x="801" y="519"/>
      <point x="987" y="439"/>
      <point x="987" y="275" type="curve" smooth="yes"/>
      <point x="987" y="195"/>
      <point x="942" y="147"/>
      <point x="888" y="147" type="curve" smooth="yes"/>
      <point x="852" y="147"/>
      <point x="830" y="170"/>
      <point x="836" y="208" type="curve" smooth="yes"/>
      <point x="862" y="374" type="line"/>
      <point x="765" y="374" type="line"/>
      <point x="760" y="345" type="line"/>
      <point x="726" y="376"/>
      <point x="659" y="395"/>
      <point x="611" y="395" type="curve" smooth="yes"/>
      <point x="477" y="395"/>
      <point x="387" y="315"/>
      <point x="387" y="213" type="curve" smooth="yes"/>
      <point x="387" y="91"/>
      <point x="465" y="31"/>
      <point x="578" y="31" type="curve" smooth="yes"/>
      <point x="656" y="31"/>
      <point x="713" y="73"/>
      <point x="739" y="128" type="curve"/>
      <point x="754" y="74"/>
      <point x="820" y="51"/>
      <point x="880" y="51" type="curve" smooth="yes"/>
      <point x="1012" y="51"/>
      <point x="1109" y="128"/>
      <point x="1109" y="272" type="curve" smooth="yes"/>
      <point x="1109" y="522"/>
      <point x="850" y="635"/>
      <point x="636" y="635" type="curve" smooth="yes"/>
      <point x="378" y="635"/>
      <point x="135" y="496"/>
      <point x="135" y="217" type="curve" smooth="yes"/>
      <point x="135" y="-72"/>
      <point x="393" y="-198"/>
    </contour>
    <contour>
      <point x="730" y="203" type="line"/>
      <point x="695" y="141"/>
      <point x="664" y="121"/>
      <point x="600" y="121" type="curve" smooth="yes"/>
      <point x="534" y="121"/>
      <point x="497" y="157"/>
      <point x="497" y="215" type="curve" smooth="yes"/>
      <point x="497" y="274"/>
      <point x="540" y="307"/>
      <point x="613" y="307" type="curve" smooth="yes"/>
      <point x="672" y="307"/>
      <point x="716" y="280"/>
      <point x="738" y="259" type="curve"/>
    </contour>
  </outline>
</glyph>
<glyph name="A" format="2">
  <advance width="960"/>
  <unicode hex="0041"/>
  <note>
A
</note>
  <anchor x="480" y="0" name="bottom"/>
  <anchor x="960" y="0" name="ogonek"/>
  <anchor x="480" y="700" name="top"/>
  <outline>
    <contour>
      <point x="712" y="161" type="line"/>
      <point x="652" y="279" type="line"/>
      <point x="304" y="279" type="line"/>
      <point x="244" y="161" type="line"/>
    </contour>
    <contour>
      <point x="478" y="578" type="line"/>
      <point x="778" y="0" type="line"/>
      <point x="960" y="0" type="line"/>
      <point x="575" y="700" type="line"/>
      <point x="383" y="700" type="line"/>
      <point x="0" y="0" type="line"/>
      <point x="178" y="0" type="line"/>
    </contour>
  </outline>
</glyph>
<glyph name="B" format="2">
  <advance width="986"/>
  <unicode hex="0042"/>
  <note>
B
</note>
  <outline>
    <contour>
      <point x="537" y="0" type="curve" smooth="yes"/>
      <point x="101" y="0" type="line"/>
      <point x="100" y="700" type="line"/>
      <point x="611" y="700" type="line" smooth="yes"/>
      <point x="788" y="700"/>
      <point x="875" y="640"/>
      <point x="875" y="526" type="curve" smooth="yes"/>
      <point x="875" y="446"/>
      <point x="850" y="384"/>
      <point x="719" y="358" type="curve"/>
      <point x="850" y="334"/>
      <point x="906" y="279"/>
      <point x="906" y="191" type="curve" smooth="yes"/>
      <point x="906" y="64"/>
      <point x="804" y="0"/>
    </contour>
    <contour>
      <point x="272" y="413" type="line"/>
      <point x="591" y="413" type="line" smooth="yes"/>
      <point x="662" y="413"/>
      <point x="696" y="444"/>
      <point x="696" y="496" type="curve" smooth="yes"/>
      <point x="696" y="547"/>
      <point x="663" y="570"/>
      <point x="591" y="570" type="curve" smooth="yes"/>
      <point x="272" y="570" type="line"/>
    </contour>
    <contour>
      <point x="273" y="140" type="line"/>
      <point x="581" y="140" type="line" smooth="yes"/>
      <point x="672" y="140"/>
      <point x="717" y="172"/>
      <point x="717" y="228" type="curve" smooth="yes"/>
      <point x="717" y="283"/>
      <point x="672" y="311"/>
      <point x="581" y="311" type="curve" smooth="yes"/>
      <point x="273" y="311" type="line"/>
    </contour>
  </outline>
</glyph>
<glyph name="C" format="2">
  <advance width="882"/>
  <unicode hex="0043"/>
  <note>
C
</note>
  <anchor x="516" y="-15" name="bottom"/>
  <anchor x="439" y="700" name="top"/>
  <outline>
    <contour>
      <point x="761" y="499" type="curve"/>
      <point x="837" y="629" type="line"/>
      <point x="744" y="681"/>
      <point x="628" y="715"/>
      <point x="496" y="715" type="curve" smooth="yes"/>
      <point x="269" y="715"/>
      <point x="50" y="584"/>
      <point x="50" y="353" type="curve" smooth="yes"/>
      <point x="50" y="109"/>
      <point x="269" y="-15"/>
      <point x="516" y="-15" type="curve" smooth="yes"/>
      <point x="654" y="-15"/>
      <point x="761" y="17"/>
      <point x="834" y="63" type="curve"/>
      <point x="761" y="191" type="line"/>
      <point x="702" y="148"/>
      <point x="633" y="125"/>
      <point x="518" y="125" type="curve" smooth="yes"/>
      <point x="341" y="125"/>
      <point x="235" y="200"/>
      <point x="235" y="353" type="curve" smooth="yes"/>
      <point x="235" y="496"/>
      <point x="344" y="575"/>
      <point x="518" y="575" type="curve" smooth="yes"/>
      <point x="613" y="575"/>
      <point x="688" y="550"/>
    </contour>
  </outline>
</glyph>
<glyph name="D" format="2">
  <advance width="1023"/>
  <unicode hex="0044"/>
  <note>
D
</note>
  <anchor x="512" y="0" name="bottom"/>
  <anchor x="512" y="350" name="center"/>
  <anchor x="472" y="700" name="top"/>
  <outline>
    <contour>
      <point x="491" y="0" type="line" smooth="yes"/>
      <point x="811" y="0"/>
      <point x="973" y="136"/>
      <point x="973" y="357" type="curve" smooth="yes"/>
      <point x="973" y="570"/>
      <point x="812" y="700"/>
      <point x="491" y="700" type="curve" smooth="yes"/>
      <point x="100" y="700" type="line"/>
      <point x="100" y="0" type="line"/>
    </contour>
    <contour>
      <point x="272" y="134" type="line"/>
      <point x="272" y="570" type="line"/>
      <point x="491" y="570" type="line" smooth="yes"/>
      <point x="696" y="570"/>
      <point x="786" y="512"/>
      <point x="786" y="354" type="curve" smooth="yes"/>
      <point x="786" y="194"/>
      <point x="696" y="134"/>
      <point x="491" y="134" type="curve" smooth="yes"/>
    </contour>
  </outline>
</glyph>
<glyph name="E" format="2">
  <advance width="1009"/>
  <unicode hex="0045"/>
  <note>
E
</note>
  <anchor x="515" y="0" name="bottom"/>
  <anchor x="910" y="10" name="ogonek"/>
  <anchor x="515" y="700" name="top"/>
  <anchor x="40" y="700" name="topleft"/>
  <outline>
    <contour>
      <point x="100" y="700" type="line"/>
      <point x="100" y="0" type="line"/>
      <point x="919" y="0" type="line"/>
      <point x="919" y="140" type="line"/>
      <point x="274" y="140" type="line"/>
      <point x="274" y="291" type="line"/>
      <point x="782" y="291" type="line"/>
      <point x="782" y="431" type="line"/>
      <point x="274" y="431" type="line"/>
      <point x="274" y="560" type="line"/>
      <point x="911" y="560" type="line"/>
      <point x="911" y="700" type="line"/>
    </contour>
  </outline>
</glyph>
<glyph name="F" format="2">
  <advance width="981"/>
  <unicode hex="0046"/>
  <note>
F
</note>
  <outline>
    <contour>
      <point x="100" y="700" type="line"/>
      <point x="100" y="0" type="line"/>
      <point x="274" y="0" type="line"/>
      <point x="274" y="271" type="line"/>
      <point x="742" y="271" type="line"/>
      <point x="742" y="411" type="line"/>
      <point x="274" y="411" type="line"/>
      <point x="274" y="560" type="line"/>
      <point x="891" y="560" type="line"/>
      <point x="891" y="700" type="line"/>
    </contour>
  </outline>
</glyph>
<glyph name="G" format="2">
  <advance width="951"/>
  <unicode hex="0047"/>
  <note>
G
</note>
  <anchor x="516" y="0" name="bottom"/>
  <anchor x="476" y="700" name="top"/>
  <outline>
    <contour>
      <point x="911" y="105" type="curve"/>
      <point x="911" y="381" type="line"/>
      <point x="561" y="381" type="line"/>
      <point x="561" y="261" type="line"/>
      <point x="771" y="261" type="line"/>
      <point x="771" y="187" type="line"/>
      <point x="730" y="144"/>
      <point x="633" y="123"/>
      <point x="524" y="123" type="curve" smooth="yes"/>
      <point x="333" y="123"/>
      <point x="235" y="215"/>
      <point x="235" y="359" type="curve" smooth="yes"/>
      <point x="235" y="519"/>
      <point x="386" y="580"/>
      <point x="543" y="580" type="curve" smooth="yes"/>
      <point x="651" y="580"/>
      <point x="741" y="559"/>
      <point x="808" y="502" type="curve"/>
      <point x="883" y="634" type="line"/>
      <point x="811" y="681"/>
      <point x="665" y="720"/>
      <point x="524" y="720" type="curve" smooth="yes"/>
      <point x="274" y="720"/>
      <point x="50" y="599"/>
      <point x="50" y="354" type="curve" smooth="yes"/>
      <point x="50" y="134"/>
      <point x="228" y="-17"/>
      <point x="514" y="-17" type="curve" smooth="yes"/>
      <point x="683" y="-17"/>
      <point x="799" y="16"/>
    </contour>
  </outline>
</glyph>
<glyph name="H" format="2">
  <advance width="1043"/>
  <unicode hex="0048"/>
  <note>
H
</note>
  <outline>
    <contour>
      <point x="100" y="700" type="line"/>
      <point x="100" y="0" type="line"/>
      <point x="274" y="0" type="line"/>
      <point x="274" y="295" type="line"/>
      <point x="769" y="295" type="line"/>
      <point x="769" y="0" type="line"/>
      <point x="943" y="0" type="line"/>
      <point x="943" y="700" type="line"/>
      <point x="769" y="700" type="line"/>
      <point x="769" y="435" type="line"/>
      <point x="274" y="435" type="line"/>
      <point x="274" y="700" type="line"/>
    </contour>
  </outline>
</glyph>
<glyph name="I" format="2">
  <advance width="410"/>
  <unicode hex="0049"/>
  <note>
I
</note>
  <anchor x="205" y="0" name="bottom"/>
  <anchor x="290" y="0" name="ogonek"/>
  <anchor x="205" y="700" name="top"/>
  <anchor x="60" y="700" name="topleft"/>
  <outline>
    <contour>
      <point x="290" y="700" type="line"/>
      <point x="120" y="700" type="line"/>
      <point x="120" y="0" type="line"/>
      <point x="290" y="0" type="line"/>
    </contour>
  </outline>
</glyph>
<glyph name="J" format="2">
  <advance width="678"/>
  <unicode hex="004A"/>
  <note>
J
</note>
  <outline>
    <contour>
      <point x="229" y="-16" type="curve" smooth="yes"/>
      <point x="445" y="-16"/>
      <point x="578" y="111"/>
      <point x="578" y="359" type="curve" smooth="yes"/>
      <point x="578" y="700" type="line"/>
      <point x="405" y="700" type="line"/>
      <point x="405" y="344" type="line" smooth="yes"/>
      <point x="405" y="193"/>
      <point x="354" y="134"/>
      <point x="229" y="134" type="curve" smooth="yes"/>
      <point x="158" y="134"/>
      <point x="73" y="155"/>
      <point x="20" y="187" type="curve"/>
      <point x="20" y="23" type="line"/>
      <point x="63" y="0"/>
      <point x="148" y="-16"/>
    </contour>
  </outline>
</glyph>
<glyph name="K" format="2">
  <advance width="944"/>
  <unicode hex="004B"/>
  <note>
K
</note>
  <anchor x="487" y="0" name="bottom"/>
  <anchor x="487" y="700" name="top"/>
  <outline>
    <contour>
      <point x="530" y="430" type="line"/>
      <point x="383" y="336" type="line"/>
      <point x="654" y="0" type="line"/>
      <point x="884" y="0" type="line"/>
    </contour>
    <contour>
      <point x="273" y="203" type="line"/>
      <point x="860" y="700" type="line"/>
      <point x="619" y="700" type="line"/>
      <point x="273" y="408" type="line"/>
      <point x="273" y="700" type="line"/>
      <point x="100" y="700" type="line"/>
      <point x="100" y="0" type="line"/>
      <point x="273" y="0" type="line"/>
    </contour>
  </outline>
</glyph>
<glyph name="L" format="2">
  <advance width="806"/>
  <unicode hex="004C"/>
  <note>
L
</note>
  <anchor x="443" y="0" name="bottom"/>
  <anchor x="443" y="350" name="center"/>
  <anchor x="191" y="700" name="top"/>
  <anchor x="407" y="700" name="topright"/>
  <outline>
    <contour>
      <point x="274" y="700" type="line"/>
      <point x="100" y="700" type="line"/>
      <point x="100" y="0" type="line"/>
      <point x="766" y="0" type="line"/>
      <point x="766" y="140" type="line"/>
      <point x="274" y="140" type="line"/>
    </contour>
  </outline>
</glyph>
<glyph name="M" format="2">
  <advance width="1188"/>
  <unicode hex="004D"/>
  <note>
M
</note>
  <outline>
    <contour>
      <point x="100" y="0" type="line"/>
      <point x="261" y="0" type="line"/>
      <point x="261" y="480" type="line"/>
      <point x="535" y="0" type="line"/>
      <point x="652" y="0" type="line"/>
      <point x="927" y="480" type="line"/>
      <point x="927" y="0" type="line"/>
      <point x="1088" y="0" type="line"/>
      <point x="1088" y="700" type="line"/>
      <point x="894" y="700" type="line"/>
      <point x="594" y="173" type="line"/>
      <point x="294" y="700" type="line"/>
      <point x="100" y="700" type="line"/>
    </contour>
  </outline>
</glyph>
<glyph name="N" format="2">
  <advance width="1025"/>
  <unicode hex="004E"/>
  <note>
N
</note>
  <anchor x="518" y="0" name="bottom"/>
  <anchor x="518" y="700" name="top"/>
  <outline>
    <contour>
      <point x="100" y="700" type="line"/>
      <point x="100" y="4" type="line"/>
      <point x="110" y="0" type="line"/>
      <point x="271" y="0" type="line"/>
      <point x="271" y="497" type="line"/>
      <point x="726" y="0" type="line"/>
      <point x="935" y="0" type="line"/>
      <point x="935" y="700" type="line"/>
      <point x="765" y="700" type="line"/>
      <point x="765" y="178" type="line"/>
      <point x="309" y="700" type="line"/>
    </contour>
  </outline>
</glyph>
<glyph name="O" format="2">
  <advance width="1057"/>
  <unicode hex="004F"/>
  <note>
O
</note>
  <anchor x="529" y="0" name="bottom"/>
  <anchor x="529" y="350" name="center"/>
  <anchor x="939" y="10" name="ogonek"/>
  <anchor x="529" y="700" name="top"/>
  <anchor x="36" y="700" name="topleft"/>
  <anchor x="1021" y="700" name="topright"/>
  <outline>
    <contour>
      <point x="529" y="-15" type="curve" smooth="yes"/>
      <point x="769" y="-15"/>
      <point x="1007" y="104"/>
      <point x="1007" y="353" type="curve" smooth="yes"/>
      <point x="1007" y="588"/>
      <point x="763" y="715"/>
      <point x="529" y="715" type="curve" smooth="yes"/>
      <point x="289" y="715"/>
      <point x="50" y="587"/>
      <point x="50" y="353" type="curve" smooth="yes"/>
      <point x="50" y="98"/>
      <point x="293" y="-15"/>
    </contour>
    <contour>
      <point x="235" y="350" type="curve" smooth="yes"/>
      <point x="235" y="496"/>
      <point x="329" y="575"/>
      <point x="529" y="575" type="curve" smooth="yes"/>
      <point x="730" y="575"/>
      <point x="822" y="496"/>
      <point x="822" y="350" type="curve" smooth="yes"/>
      <point x="822" y="189"/>
      <point x="730" y="125"/>
      <point x="529" y="125" type="curve" smooth="yes"/>
      <point x="329" y="125"/>
      <point x="235" y="189"/>
    </contour>
  </outline>
</glyph>
<glyph name="P" format="2">
  <advance width="963"/>
  <unicode hex="0050"/>
  <note>
P
</note>
  <outline>
    <contour>
      <point x="100" y="0" type="line"/>
      <point x="100" y="700" type="line"/>
      <point x="521" y="700" type="line" smooth="yes"/>
      <point x="776" y="700"/>
      <point x="903" y="622"/>
      <point x="903" y="466" type="curve" smooth="yes"/>
      <point x="903" y="309"/>
      <point x="776" y="231"/>
      <point x="521" y="231" type="curve" smooth="yes"/>
      <point x="272" y="231" type="line"/>
      <point x="272" y="0" type="line"/>
    </contour>
    <contour>
      <point x="275" y="356" type="line"/>
      <point x="541" y="356" type="line" smooth="yes"/>
      <point x="657" y="356"/>
      <point x="713" y="389"/>
      <point x="713" y="466" type="curve" smooth="yes"/>
      <point x="713" y="543"/>
      <point x="657" y="576"/>
      <point x="541" y="576" type="curve" smooth="yes"/>
      <point x="275" y="576" type="line"/>
    </contour>
  </outline>
</glyph>
<glyph name="Q" format="2">
  <advance width="1057"/>
  <unicode hex="0051"/>
  <note>
Q
</note>
  <outline>
    <contour>
      <point x="714" y="-90" type="line"/>
      <point x="911" y="-90" type="line"/>
      <point x="621" y="269" type="line"/>
      <point x="421" y="269" type="line"/>
    </contour>
    <component base="O"/>
  </outline>
</glyph>
<glyph name="R" format="2">
  <advance width="973"/>
  <unicode hex="0052"/>
  <note>
R
</note>
  <anchor x="497" y="0" name="bottom"/>
  <anchor x="497" y="700" name="top"/>
  <outline>
    <contour>
      <point x="521" y="241" type="line" smooth="yes"/>
      <point x="705" y="241"/>
      <point x="903" y="282"/>
      <point x="903" y="471" type="curve" smooth="yes"/>
      <point x="903" y="627"/>
      <point x="776" y="700"/>
      <point x="521" y="700" type="curve" smooth="yes"/>
      <point x="100" y="700" type="line"/>
      <point x="100" y="0" type="line"/>
      <point x="272" y="0" type="line"/>
      <point x="272" y="241" type="line"/>
    </contour>
    <contour>
      <point x="275" y="366" type="line"/>
      <point x="275" y="576" type="line"/>
      <point x="541" y="576" type="line" smooth="yes"/>
      <point x="657" y="576"/>
      <point x="713" y="548"/>
      <point x="713" y="471" type="curve" smooth="yes"/>
      <point x="713" y="399"/>
      <point x="657" y="366"/>
      <point x="541" y="366" type="curve" smooth="yes"/>
    </contour>
    <contour>
      <point x="692" y="0" type="line"/>
      <point x="892" y="0" type="line"/>
      <point x="602" y="349" type="line"/>
      <point x="402" y="349" type="line"/>
    </contour>
  </outline>
</glyph>
<glyph name="S" format="2">
  <advance width="913"/>
  <unicode hex="0053"/>
  <note>
S
</note>
  <anchor x="457" y="0" name="bottom"/>
  <anchor x="457" y="700" name="top"/>
  <outline>
    <contour>
      <point x="81" y="229" type="curve"/>
      <point x="30" y="87" type="line"/>
      <point x="155" y="22"/>
      <point x="318" y="-15"/>
      <point x="486" y="-15" type="curve" smooth="yes"/>
      <point x="746" y="-15"/>
      <point x="883" y="65"/>
      <point x="883" y="214" type="curve" smooth="yes"/>
      <point x="883" y="351"/>
      <point x="777" y="410"/>
      <point x="577" y="422" type="curve" smooth="yes"/>
      <point x="397" y="433" type="line" smooth="yes"/>
      <point x="275" y="440"/>
      <point x="230" y="457"/>
      <point x="230" y="504" type="curve" smooth="yes"/>
      <point x="230" y="561"/>
      <point x="348" y="576"/>
      <point x="438" y="576" type="curve" smooth="yes"/>
      <point x="577" y="576"/>
      <point x="702" y="556"/>
      <point x="799" y="497" type="curve"/>
      <point x="851" y="628" type="line"/>
      <point x="744" y="684"/>
      <point x="588" y="715"/>
      <point x="451" y="715" type="curve" smooth="yes"/>
      <point x="272" y="715"/>
      <point x="56" y="662"/>
      <point x="56" y="498" type="curve" smooth="yes"/>
      <point x="56" y="357"/>
      <point x="169" y="292"/>
      <point x="359" y="279" type="curve" smooth="yes"/>
      <point x="534" y="267" type="line" smooth="yes"/>
      <point x="645" y="259"/>
      <point x="713" y="253"/>
      <point x="713" y="204" type="curve" smooth="yes"/>
      <point x="713" y="151"/>
      <point x="632" y="135"/>
      <point x="486" y="135" type="curve" smooth="yes"/>
      <point x="330" y="135"/>
      <point x="191" y="164"/>
    </contour>
  </outline>
</glyph>
<glyph name="T" format="2">
  <advance width="930"/>
  <unicode hex="0054"/>
  <note>
T
</note>
  <anchor x="465" y="0" name="bottom"/>
  <anchor x="465" y="350" name="center"/>
  <anchor x="465" y="700" name="top"/>
  <outline>
    <contour>
      <point x="50" y="560" type="line"/>
      <point x="378" y="560" type="line"/>
      <point x="378" y="0" type="line"/>
      <point x="552" y="0" type="line"/>
      <point x="552" y="560" type="line"/>
      <point x="880" y="560" type="line"/>
      <point x="880" y="700" type="line"/>
      <point x="50" y="700" type="line"/>
    </contour>
  </outline>
</glyph>
<glyph name="U" format="2">
  <advance width="1019"/>
  <unicode hex="0055"/>
  <note>
U
</note>
  <anchor x="510" y="0" name="bottom"/>
  <anchor x="684" y="10" name="ogonek"/>
  <anchor x="510" y="700" name="top"/>
  <anchor x="999" y="700" name="topright"/>
  <outline>
    <contour>
      <point x="80" y="366" type="line" smooth="yes"/>
      <point x="80" y="122"/>
      <point x="234" y="-15"/>
      <point x="509" y="-15" type="curve" smooth="yes"/>
      <point x="786" y="-15"/>
      <point x="940" y="122"/>
      <point x="939" y="366" type="curve" smooth="yes"/>
      <point x="938" y="701" type="line"/>
      <point x="769" y="700" type="line"/>
      <point x="769" y="365" type="line" smooth="yes"/>
      <point x="769" y="211"/>
      <point x="676" y="125"/>
      <point x="509" y="125" type="curve" smooth="yes"/>
      <point x="342" y="125"/>
      <point x="249" y="211"/>
      <point x="249" y="365" type="curve" smooth="yes"/>
      <point x="249" y="700" type="line"/>
      <point x="80" y="701" type="line"/>
    </contour>
  </outline>
</glyph>
<glyph name="V" format="2">
  <advance width="960"/>
  <unicode hex="0056"/>
  <note>
V
</note>
  <outline>
    <contour>
      <point x="10" y="700" type="line"/>
      <point x="397" y="0" type="line"/>
      <point x="560" y="0" type="line"/>
      <point x="950" y="700" type="line"/>
      <point x="770" y="700" type="line"/>
      <point x="478" y="170" type="line"/>
      <point x="194" y="700" type="line"/>
    </contour>
  </outline>
</glyph>
<glyph name="W" format="2">
  <advance width="1298"/>
  <unicode hex="0057"/>
  <note>
W
</note>
  <outline>
    <contour>
      <point x="1048" y="0" type="line"/>
      <point x="1298" y="700" type="line"/>
      <point x="1096" y="700" type="line"/>
      <point x="940" y="179" type="line"/>
      <point x="748" y="700" type="line"/>
      <point x="555" y="700" type="line"/>
      <point x="356" y="179" type="line"/>
      <point x="200" y="700" type="line"/>
      <point x="0" y="700" type="line"/>
      <point x="250" y="0" type="line"/>
      <point x="437" y="0" type="line"/>
      <point x="651" y="506" type="line"/>
      <point x="848" y="0" type="line"/>
      <point x="1048" y="0" type="line"/>
    </contour>
  </outline>
</glyph>
<glyph name="X" format="2">
  <advance width="1030"/>
  <unicode hex="0058"/>
  <note>
X
</note>
  <outline>
    <contour>
      <point x="515" y="251" type="line"/>
      <point x="759" y="0" type="line"/>
      <point x="987" y="0" type="line"/>
      <point x="632" y="362" type="line"/>
      <point x="975" y="700" type="line"/>
      <point x="749" y="700" type="line"/>
      <point x="515" y="474" type="line"/>
      <point x="281" y="700" type="line"/>
      <point x="53" y="700" type="line"/>
      <point x="397" y="362" type="line"/>
      <point x="43" y="0" type="line"/>
      <point x="269" y="0" type="line"/>
      <point x="515" y="251" type="line"/>
    </contour>
  </outline>
</glyph>
<glyph name="Y" format="2">
  <advance width="962"/>
  <unicode hex="0059"/>
  <note>
Y
</note>
  <anchor x="481" y="0" name="bottom"/>
  <anchor x="481" y="700" name="top"/>
  <anchor x="20" y="700" name="topleft"/>
  <outline>
    <contour>
      <point x="962" y="700" type="line"/>
      <point x="759" y="700" type="line"/>
      <point x="483" y="393" type="line"/>
      <point x="205" y="700" type="line"/>
      <point x="0" y="700" type="line"/>
      <point x="397" y="253" type="line"/>
      <point x="397" y="0" type="line"/>
      <point x="568" y="0" type="line"/>
      <point x="568" y="253" type="line"/>
    </contour>
  </outline>
</glyph>
<glyph name="Z" format="2">
  <advance width="972"/>
  <unicode hex="005A"/>
  <note>
Z
</note>
  <anchor x="486" y="0" name="bottom"/>
  <anchor x="486" y="350" name="center"/>
  <anchor x="486" y="700" name="top"/>
  <outline>
    <contour>
      <point x="888" y="569" type="line"/>
      <point x="888" y="700" type="line"/>
      <point x="86" y="700" type="line"/>
      <point x="86" y="565" type="line"/>
      <point x="654" y="565" type="line"/>
      <point x="75" y="131" type="line"/>
      <point x="75" y="0" type="line"/>
      <point x="897" y="0" type="line"/>
      <point x="897" y="135" type="line"/>
      <point x="320" y="135" type="line"/>
      <point x="888" y="569" type="line"/>
    </contour>
  </outline>
</glyph>
<glyph name="bracketleft" format="2">
  <advance width="403"/>
  <unicode hex="005B"/>
  <note>
bracketleft
</note>
  <outline>
    <contour>
      <point x="50" y="765" type="line"/>
      <point x="50" y="-250" type="line"/>
      <point x="383" y="-250" type="line"/>
      <point x="383" y="-134" type="line"/>
      <point x="209" y="-134" type="line"/>
      <point x="209" y="649" type="line"/>
      <point x="383" y="649" type="line"/>
      <point x="383" y="765" type="line"/>
    </contour>
  </outline>
</glyph>
<glyph name="asciicircum" format="2">
  <advance width="800"/>
  <unicode hex="005E"/>
  <note>
asciicircum
</note>
  <outline>
    <contour>
      <point x="400" y="590" type="line"/>
      <point x="551" y="310" type="line"/>
      <point x="710" y="310" type="line"/>
      <point x="464" y="767" type="line"/>
      <point x="336" y="767" type="line"/>
      <point x="90" y="310" type="line"/>
      <point x="251" y="310" type="line"/>
    </contour>
  </outline>
</glyph>
<glyph name="underscore" format="2">
  <advance width="478"/>
  <unicode hex="005F"/>
  <note>
underscore
</note>
  <outline>
    <contour>
      <point x="0" y="-40" type="line"/>
      <point x="0" y="-125" type="line"/>
      <point x="478" y="-125" type="line"/>
      <point x="478" y="-40" type="line"/>
    </contour>
  </outline>
</glyph>
<glyph name="a" format="2">
  <advance width="825"/>
  <unicode hex="0061"/>
  <note>
a
</note>
  <anchor x="413" y="0" name="bottom"/>
  <anchor x="743" y="10" name="ogonek"/>
  <anchor x="393" y="500" name="top"/>
  <outline>
    <contour>
      <point x="565" y="219" type="line"/>
      <point x="565" y="159" type="line"/>
      <point x="524" y="118"/>
      <point x="444" y="90"/>
      <point x="364" y="90" type="curve" smooth="yes"/>
      <point x="288" y="90"/>
      <point x="250" y="110"/>
      <point x="250" y="153" type="curve" smooth="yes"/>
      <point x="250" y="214"/>
      <point x="348" y="219"/>
      <point x="437" y="219" type="curve" smooth="yes"/>
    </contour>
    <contour>
      <point x="111" y="443" type="curve"/>
      <point x="154" y="324" type="line"/>
      <point x="233" y="371"/>
      <point x="315" y="390"/>
      <point x="397" y="390" type="curve" smooth="yes"/>
      <point x="509" y="390"/>
      <point x="565" y="354"/>
      <point x="565" y="298" type="curve"/>
      <point x="413" y="297" type="line" smooth="yes"/>
      <point x="275" y="296"/>
      <point x="70" y="269"/>
      <point x="70" y="136" type="curve" smooth="yes"/>
      <point x="70" y="34"/>
      <point x="162" y="-15"/>
      <point x="308" y="-15" type="curve" smooth="yes"/>
      <point x="386" y="-15"/>
      <point x="500" y="12"/>
      <point x="565" y="73" type="curve"/>
      <point x="565" y="0" type="line"/>
      <point x="725" y="0" type="line"/>
      <point x="725" y="222" type="line" smooth="yes"/>
      <point x="725" y="431"/>
      <point x="611" y="515"/>
      <point x="397" y="515" type="curve" smooth="yes"/>
      <point x="296" y="515"/>
      <point x="186" y="487"/>
    </contour>
  </outline>
</glyph>
<glyph name="c" format="2">
  <advance width="703"/>
  <unicode hex="0063"/>
  <note>
c
</note>
  <anchor x="392" y="0" name="bottom"/>
  <anchor x="382" y="500" name="top"/>
  <outline>
    <contour>
      <point x="616" y="337" type="curve"/>
      <point x="664" y="449" type="line"/>
      <point x="612" y="485"/>
      <point x="506" y="515"/>
      <point x="390" y="515" type="curve" smooth="yes"/>
      <point x="179" y="515"/>
      <point x="43" y="402"/>
      <point x="43" y="251" type="curve" smooth="yes"/>
      <point x="43" y="99"/>
      <point x="180" y="-15"/>
      <point x="391" y="-15" type="curve" smooth="yes"/>
      <point x="508" y="-15"/>
      <point x="614" y="15"/>
      <point x="665" y="54" type="curve"/>
      <point x="617" y="166" type="line"/>
      <point x="573" y="137"/>
      <point x="496" y="116"/>
      <point x="403" y="116" type="curve" smooth="yes"/>
      <point x="281" y="116"/>
      <point x="207" y="165"/>
      <point x="207" y="251" type="curve" smooth="yes"/>
      <point x="207" y="348"/>
      <point x="281" y="388"/>
      <point x="403" y="388" type="curve" smooth="yes"/>
      <point x="488" y="388"/>
      <point x="571" y="366"/>
    </contour>
  </outline>
</glyph>
<glyph name="d" format="2">
  <advance width="842"/>
  <unicode hex="0064"/>
  <note>
d
</note>
  <outline>
    <contour>
      <point x="782" y="0" type="line"/>
      <point x="782" y="750" type="line"/>
      <point x="604" y="750" type="line"/>
      <point x="604" y="445" type="line"/>
      <point x="544" y="494"/>
      <point x="457" y="515"/>
      <point x="366" y="515" type="curve" smooth="yes"/>
      <point x="175" y="515"/>
      <point x="43" y="409"/>
      <point x="43" y="251" type="curve" smooth="yes"/>
      <point x="43" y="93"/>
      <point x="174" y="-15"/>
      <point x="366" y="-15" type="curve" smooth="yes"/>
      <point x="458" y="-15"/>
      <point x="546" y="10"/>
      <point x="604" y="64" type="curve"/>
      <point x="604" y="0" type="line"/>
    </contour>
    <contour>
      <point x="604" y="169" type="line"/>
      <point x="542" y="133"/>
      <point x="469" y="110"/>
      <point x="392" y="110" type="curve" smooth="yes"/>
      <point x="275" y="110"/>
      <point x="217" y="149"/>
      <point x="217" y="250" type="curve" smooth="yes"/>
      <point x="217" y="351"/>
      <point x="273" y="390"/>
      <point x="392" y="390" type="curve" smooth="yes"/>
      <point x="469" y="390"/>
      <point x="542" y="373"/>
      <point x="604" y="341" type="curve"/>
    </contour>
  </outline>
</glyph>
<glyph name="e" format="2">
  <advance width="798"/>
  <unicode hex="0065"/>
  <note>
e
</note>
  <anchor x="402" y="0" name="bottom"/>
  <anchor x="615" y="10" name="ogonek"/>
  <anchor x="402" y="500" name="top"/>
  <outline>
    <contour>
      <point x="202" y="145"/>
      <point x="202" y="245" type="curve" smooth="yes"/>
      <point x="202" y="351"/>
      <point x="275" y="396"/>
      <point x="402" y="396" type="curve" smooth="yes"/>
      <point x="532" y="396"/>
      <point x="584" y="349"/>
      <point x="596" y="287" type="curve"/>
      <point x="156" y="287" type="line"/>
      <point x="156" y="200" type="line"/>
      <point x="758" y="200" type="line"/>
      <point x="758" y="240" type="line" smooth="yes"/>
      <point x="758" y="399"/>
      <point x="615" y="515"/>
      <point x="396" y="515" type="curve" smooth="yes"/>
      <point x="173" y="515"/>
      <point x="43" y="399"/>
      <point x="43" y="241" type="curve" smooth="yes"/>
      <point x="43" y="58"/>
      <point x="228" y="-15"/>
      <point x="431" y="-15" type="curve" smooth="yes"/>
      <point x="531" y="-15"/>
      <point x="665" y="14"/>
      <point x="728" y="54" type="curve"/>
      <point x="680" y="166" type="line"/>
      <point x="610" y="125"/>
      <point x="520" y="105"/>
      <point x="421" y="105" type="curve" smooth="yes"/>
      <point x="297" y="105"/>
    </contour>
  </outline>
</glyph>
<glyph name="f" format="2">
  <advance width="537"/>
  <unicode hex="0066"/>
  <note>
f
</note>
  <outline>
    <contour>
      <point x="574" y="712" type="curve"/>
      <point x="533" y="591" type="line"/>
      <point x="502" y="620"/>
      <point x="456" y="637"/>
      <point x="407" y="637" type="curve" smooth="yes"/>
      <point x="340" y="637"/>
      <point x="280" y="609"/>
      <point x="278" y="500" type="curve"/>
      <point x="511" y="500" type="line"/>
      <point x="511" y="380" type="line"/>
      <point x="278" y="380" type="line"/>
      <point x="276" y="0" type="line"/>
      <point x="111" y="0" type="line"/>
      <point x="111" y="380" type="line"/>
      <point x="20" y="380" type="line"/>
      <point x="20" y="500" type="line"/>
      <point x="111" y="500" type="line"/>
      <point x="112" y="662"/>
      <point x="188" y="764"/>
      <point x="385" y="764" type="curve" smooth="yes"/>
      <point x="460" y="764"/>
      <point x="530" y="745"/>
    </contour>
  </outline>
</glyph>
<glyph name="g" format="2">
  <advance width="800"/>
  <unicode hex="0067"/>
  <note>
g
</note>
  <anchor x="400" y="-270" name="bottom"/>
  <anchor x="370" y="500" name="top"/>
  <outline>
    <contour>
      <point x="592" y="57" type="curve"/>
      <point x="592" y="-82"/>
      <point x="481" y="-119"/>
      <point x="357" y="-119" type="curve" smooth="yes"/>
      <point x="245" y="-119"/>
      <point x="148" y="-96"/>
      <point x="65" y="-55" type="curve"/>
      <point x="65" y="-195" type="line"/>
      <point x="133" y="-228"/>
      <point x="240" y="-250"/>
      <point x="347" y="-250" type="curve" smooth="yes"/>
      <point x="578" y="-250"/>
      <point x="730" y="-167"/>
      <point x="730" y="55" type="curve" smooth="yes"/>
      <point x="730" y="500" type="line"/>
      <point x="585" y="500" type="line"/>
      <point x="586" y="438" type="line"/>
      <point x="521" y="486"/>
      <point x="436" y="515"/>
      <point x="343" y="515" type="curve" smooth="yes"/>
      <point x="159" y="515"/>
      <point x="40" y="402"/>
      <point x="40" y="242" type="curve" smooth="yes"/>
      <point x="40" y="94"/>
      <point x="160" y="-14"/>
      <point x="343" y="-14" type="curve" smooth="yes"/>
      <point x="446" y="-14"/>
      <point x="533" y="12"/>
    </contour>
    <contour>
      <point x="214" y="240" type="curve" smooth="yes"/>
      <point x="214" y="345"/>
      <point x="269" y="385"/>
      <point x="409" y="385" type="curve" smooth="yes"/>
      <point x="478" y="385"/>
      <point x="541" y="362"/>
      <point x="588" y="330" type="curve"/>
      <point x="590" y="156" type="line"/>
      <point x="546" y="127"/>
      <point x="481" y="107"/>
      <point x="409" y="107" type="curve" smooth="yes"/>
      <point x="290" y="107"/>
      <point x="214" y="124"/>
    </contour>
  </outline>
</glyph>
<glyph name="h" format="2">
  <advance width="828"/>
  <unicode hex="0068"/>
  <note>
h
</note>
  <outline>
    <contour>
      <point x="55" y="750" type="line"/>
      <point x="55" y="0" type="line"/>
      <point x="233" y="0" type="line"/>
      <point x="233" y="304" type="line"/>
      <point x="282" y="352"/>
      <point x="347" y="385"/>
      <point x="428" y="385" type="curve" smooth="yes"/>
      <point x="535" y="385"/>
      <point x="600" y="324"/>
      <point x="600" y="206" type="curve" smooth="yes"/>
      <point x="600" y="0" type="line"/>
      <point x="778" y="0" type="line"/>
      <point x="778" y="226" type="line" smooth="yes"/>
      <point x="778" y="418"/>
      <point x="672" y="515"/>
      <point x="499" y="515" type="curve" smooth="yes"/>
      <point x="389" y="515"/>
      <point x="298" y="474"/>
      <point x="233" y="413" type="curve"/>
      <point x="233" y="750" type="line"/>
    </contour>
  </outline>
</glyph>
<glyph name="k" format="2">
  <advance width="731"/>
  <unicode hex="006B"/>
  <note>
k
</note>
  <anchor x="358" y="0" name="bottom"/>
  <anchor x="358" y="730" name="top"/>
  <outline>
    <contour>
      <point x="420" y="309" type="line"/>
      <point x="303" y="232" type="line"/>
      <point x="488" y="0" type="line"/>
      <point x="671" y="0" type="line"/>
    </contour>
    <contour>
      <point x="223" y="160" type="line"/>
      <point x="691" y="500" type="line"/>
      <point x="477" y="500" type="line"/>
      <point x="223" y="316" type="line"/>
      <point x="223" y="750" type="line"/>
      <point x="55" y="750" type="line"/>
      <point x="55" y="0" type="line"/>
      <point x="223" y="0" type="line"/>
    </contour>
  </outline>
</glyph>
<glyph name="l" format="2">
  <advance width="303"/>
  <unicode hex="006C"/>
  <note>
l
</note>
  <anchor x="160" y="0" name="bottom"/>
  <anchor x="160" y="365" name="center"/>
  <anchor x="160" y="730" name="top"/>
  <anchor x="308" y="730" name="topright"/>
  <outline>
    <contour>
      <point x="65" y="750" type="line"/>
      <point x="65" y="0" type="line"/>
      <point x="243" y="0" type="line"/>
      <point x="243" y="750" type="line"/>
    </contour>
  </outline>
</glyph>
<glyph name="m" format="2">
  <advance width="1311"/>
  <unicode hex="006D"/>
  <note>
m
</note>
  <outline>
    <contour>
      <point x="575" y="0" type="line"/>
      <point x="753" y="0" type="line"/>
      <point x="753" y="226" type="line" smooth="yes"/>
      <point x="753" y="418"/>
      <point x="647" y="515"/>
      <point x="494" y="515" type="curve" smooth="yes"/>
      <point x="384" y="515"/>
      <point x="303" y="474"/>
      <point x="238" y="413" type="curve"/>
      <point x="238" y="500" type="line"/>
      <point x="60" y="500" type="line"/>
      <point x="60" y="0" type="line"/>
      <point x="238" y="0" type="line"/>
      <point x="238" y="304" type="line"/>
      <point x="287" y="352"/>
      <point x="342" y="385"/>
      <point x="423" y="385" type="curve" smooth="yes"/>
      <point x="510" y="385"/>
      <point x="575" y="324"/>
      <point x="575" y="206" type="curve" smooth="yes"/>
    </contour>
    <contour>
      <point x="746" y="304" type="line"/>
      <point x="795" y="352"/>
      <point x="850" y="385"/>
      <point x="931" y="385" type="curve" smooth="yes"/>
      <point x="1018" y="385"/>
      <point x="1083" y="324"/>
      <point x="1083" y="206" type="curve" smooth="yes"/>
      <point x="1083" y="0" type="line"/>
      <point x="1261" y="0" type="line"/>
      <point x="1261" y="226" type="line" smooth="yes"/>
      <point x="1261" y="418"/>
      <point x="1155" y="515"/>
      <point x="1002" y="515" type="curve" smooth="yes"/>
      <point x="892" y="515"/>
      <point x="811" y="484"/>
      <point x="706" y="377" type="curve"/>
    </contour>
  </outline>
</glyph>
<glyph name="n" format="2">
  <advance width="833"/>
  <unicode hex="006E"/>
  <note>
n
</note>
  <anchor x="442" y="0" name="bottom"/>
  <anchor x="442" y="500" name="top"/>
  <outline>
    <contour>
      <point x="60" y="500" type="line"/>
      <point x="60" y="0" type="line"/>
      <point x="238" y="0" type="line"/>
      <point x="238" y="304" type="line"/>
      <point x="287" y="352"/>
      <point x="352" y="385"/>
      <point x="433" y="385" type="curve" smooth="yes"/>
      <point x="540" y="385"/>
      <point x="605" y="324"/>
      <point x="605" y="206" type="curve" smooth="yes"/>
      <point x="605" y="0" type="line"/>
      <point x="783" y="0" type="line"/>
      <point x="783" y="226" type="line" smooth="yes"/>
      <point x="783" y="418"/>
      <point x="677" y="515"/>
      <point x="504" y="515" type="curve" smooth="yes"/>
      <point x="394" y="515"/>
      <point x="303" y="474"/>
      <point x="238" y="413" type="curve"/>
      <point x="238" y="500" type="line"/>
    </contour>
  </outline>
</glyph>
<glyph name="o" format="2">
  <advance width="840"/>
  <unicode hex="006F"/>
  <note>
o
</note>
  <anchor x="420" y="0" name="bottom"/>
  <anchor x="420" y="250" name="center"/>
  <anchor x="760" y="10" name="ogonek"/>
  <anchor x="420" y="500" name="top"/>
  <anchor x="825" y="500" name="topright"/>
  <outline>
    <contour>
      <point x="420" y="515" type="curve" smooth="yes"/>
      <point x="194" y="515"/>
      <point x="43" y="403"/>
      <point x="43" y="250" type="curve" smooth="yes"/>
      <point x="43" y="70"/>
      <point x="234" y="-15"/>
      <point x="420" y="-15" type="curve" smooth="yes"/>
      <point x="595" y="-15"/>
      <point x="797" y="63"/>
      <point x="797" y="250" type="curve" smooth="yes"/>
      <point x="797" y="403"/>
      <point x="646" y="515"/>
    </contour>
    <contour>
      <point x="217" y="250" type="curve" smooth="yes"/>
      <point x="217" y="341"/>
      <point x="281" y="383"/>
      <point x="420" y="383" type="curve" smooth="yes"/>
      <point x="559" y="383"/>
      <point x="623" y="341"/>
      <point x="623" y="250" type="curve" smooth="yes"/>
      <point x="623" y="157"/>
      <point x="559" y="117"/>
      <point x="420" y="117" type="curve" smooth="yes"/>
      <point x="281" y="117"/>
      <point x="217" y="157"/>
    </contour>
  </outline>
</glyph>
<glyph name="p" format="2">
  <advance width="842"/>
  <unicode hex="0070"/>
  <note>
p
</note>
  <outline>
    <contour>
      <point x="60" y="-250" type="line"/>
      <point x="238" y="-250" type="line"/>
      <point x="238" y="57" type="line"/>
      <point x="296" y="3"/>
      <point x="394" y="-15"/>
      <point x="476" y="-15" type="curve" smooth="yes"/>
      <point x="668" y="-15"/>
      <point x="799" y="93"/>
      <point x="799" y="251" type="curve" smooth="yes"/>
      <point x="799" y="409"/>
      <point x="667" y="515"/>
      <point x="476" y="515" type="curve" smooth="yes"/>
      <point x="395" y="515"/>
      <point x="298" y="487"/>
      <point x="238" y="438" type="curve"/>
      <point x="238" y="500" type="line"/>
      <point x="60" y="500" type="line"/>
    </contour>
    <contour>
      <point x="238" y="162" type="curve"/>
      <point x="238" y="334" type="line"/>
      <point x="300" y="366"/>
      <point x="373" y="390"/>
      <point x="450" y="390" type="curve" smooth="yes"/>
      <point x="569" y="390"/>
      <point x="625" y="351"/>
      <point x="625" y="250" type="curve" smooth="yes"/>
      <point x="625" y="149"/>
      <point x="567" y="110"/>
      <point x="450" y="110" type="curve" smooth="yes"/>
      <point x="373" y="110"/>
      <point x="300" y="126"/>
    </contour>
  </outline>
</glyph>
<glyph name="q" format="2">
  <advance width="842"/>
  <unicode hex="0071"/>
  <note>
q
</note>
  <outline>
    <contour>
      <point x="782" y="-250" type="line"/>
      <point x="782" y="506" type="line"/>
      <point x="674" y="506" type="line"/>
      <point x="614" y="441" type="line"/>
      <point x="554" y="486"/>
      <point x="457" y="515"/>
      <point x="366" y="515" type="curve" smooth="yes"/>
      <point x="175" y="515"/>
      <point x="43" y="409"/>
      <point x="43" y="251" type="curve" smooth="yes"/>
      <point x="43" y="93"/>
      <point x="174" y="-15"/>
      <point x="366" y="-15" type="curve" smooth="yes"/>
      <point x="458" y="-15"/>
      <point x="546" y="6"/>
      <point x="604" y="60" type="curve"/>
      <point x="604" y="-250" type="line"/>
    </contour>
    <contour>
      <point x="604" y="165" type="line"/>
      <point x="542" y="129"/>
      <point x="469" y="110"/>
      <point x="392" y="110" type="curve" smooth="yes"/>
      <point x="275" y="110"/>
      <point x="217" y="149"/>
      <point x="217" y="250" type="curve" smooth="yes"/>
      <point x="217" y="351"/>
      <point x="273" y="390"/>
      <point x="392" y="390" type="curve" smooth="yes"/>
      <point x="469" y="390"/>
      <point x="542" y="369"/>
      <point x="604" y="337" type="curve"/>
    </contour>
  </outline>
</glyph>
<glyph name="r" format="2">
  <advance width="584"/>
  <unicode hex="0072"/>
  <note>
r
</note>
  <anchor x="147" y="0" name="bottom"/>
  <anchor x="287" y="500" name="top"/>
  <outline>
    <contour>
      <point x="60" y="500" type="line"/>
      <point x="60" y="0" type="line"/>
      <point x="238" y="0" type="line"/>
      <point x="238" y="304" type="line"/>
      <point x="281" y="350"/>
      <point x="332" y="375"/>
      <point x="403" y="375" type="curve" smooth="yes"/>
      <point x="470" y="375"/>
      <point x="513" y="364"/>
      <point x="554" y="336" type="curve"/>
      <point x="554" y="496" type="line"/>
      <point x="527" y="507"/>
      <point x="477" y="515"/>
      <point x="442" y="515" type="curve" smooth="yes"/>
      <point x="361" y="515"/>
      <point x="293" y="482"/>
      <point x="238" y="427" type="curve"/>
      <point x="238" y="500" type="line"/>
    </contour>
  </outline>
</glyph>
<glyph name="s" format="2">
  <advance width="767"/>
  <unicode hex="0073"/>
  <note>
s
</note>
  <anchor x="364" y="0" name="bottom"/>
  <anchor x="364" y="500" name="top"/>
  <outline>
    <contour>
      <point x="669" y="453" type="line"/>
      <point x="577" y="493"/>
      <point x="484" y="515"/>
      <point x="360" y="515" type="curve" smooth="yes"/>
      <point x="177" y="515"/>
      <point x="55" y="457"/>
      <point x="55" y="350" type="curve" smooth="yes"/>
      <point x="55" y="262"/>
      <point x="139" y="211"/>
      <point x="295" y="196" type="curve" smooth="yes"/>
      <point x="432" y="183" type="line" smooth="yes"/>
      <point x="515" y="175"/>
      <point x="556" y="175"/>
      <point x="556" y="146" type="curve" smooth="yes"/>
      <point x="556" y="104"/>
      <point x="457" y="100"/>
      <point x="377" y="100" type="curve" smooth="yes"/>
      <point x="283" y="100"/>
      <point x="185" y="123"/>
      <point x="100" y="171" type="curve"/>
      <point x="51" y="66" type="line"/>
      <point x="167" y="11"/>
      <point x="271" y="-15"/>
      <point x="388" y="-15" type="curve" smooth="yes"/>
      <point x="589" y="-15"/>
      <point x="704" y="43"/>
      <point x="704" y="154" type="curve" smooth="yes"/>
      <point x="704" y="249"/>
      <point x="612" y="286"/>
      <point x="452" y="301" type="curve" smooth="yes"/>
      <point x="317" y="314" type="line" smooth="yes"/>
      <point x="277" y="318"/>
      <point x="208" y="317"/>
      <point x="208" y="359" type="curve" smooth="yes"/>
      <point x="208" y="405"/>
      <point x="290" y="403"/>
      <point x="341" y="403" type="curve" smooth="yes"/>
      <point x="397" y="403"/>
      <point x="514" y="394"/>
      <point x="627" y="355" type="curve"/>
    </contour>
  </outline>
</glyph>
<glyph name="t" format="2">
  <advance width="597"/>
  <unicode hex="0074"/>
  <note>
t
</note>
  <anchor x="333" y="0" name="bottom"/>
  <anchor x="299" y="250" name="center"/>
  <anchor x="299" y="500" name="top"/>
  <anchor x="327" y="750" name="topright"/>
  <outline>
    <contour>
      <point x="527" y="15" type="curve"/>
      <point x="527" y="136" type="line"/>
      <point x="490" y="124"/>
      <point x="444" y="116"/>
      <point x="396" y="116" type="curve" smooth="yes"/>
      <point x="316" y="116"/>
      <point x="286" y="150"/>
      <point x="286" y="233" type="curve" smooth="yes"/>
      <point x="286" y="376" type="line"/>
      <point x="524" y="376" type="line"/>
      <point x="524" y="500" type="line"/>
      <point x="286" y="500" type="line"/>
      <point x="286" y="637" type="line"/>
      <point x="143" y="637" type="line"/>
      <point x="123" y="500" type="line"/>
      <point x="0" y="500" type="line"/>
      <point x="0" y="376" type="line"/>
      <point x="116" y="376" type="line"/>
      <point x="116" y="193" type="line" smooth="yes"/>
      <point x="116" y="51"/>
      <point x="198" y="-15"/>
      <point x="361" y="-15" type="curve" smooth="yes"/>
      <point x="417" y="-15"/>
      <point x="478" y="-2"/>
    </contour>
  </outline>
</glyph>
<glyph name="u" format="2">
  <advance width="883"/>
  <unicode hex="0075"/>
  <note>
u
</note>
  <anchor x="442" y="0" name="bottom"/>
  <anchor x="795" y="10" name="ogonek"/>
  <anchor x="442" y="500" name="top"/>
  <anchor x="863" y="500" name="topright"/>
  <outline>
    <contour>
      <point x="793" y="0" type="line"/>
      <point x="793" y="500" type="line"/>
      <point x="615" y="500" type="line"/>
      <point x="615" y="202" type="line"/>
      <point x="566" y="144"/>
      <point x="491" y="115"/>
      <point x="420" y="115" type="curve" smooth="yes"/>
      <point x="313" y="115"/>
      <point x="248" y="176"/>
      <point x="248" y="284" type="curve" smooth="yes"/>
      <point x="248" y="500" type="line"/>
      <point x="70" y="500" type="line"/>
      <point x="70" y="264" type="line" smooth="yes"/>
      <point x="70" y="72"/>
      <point x="191" y="-15"/>
      <point x="360" y="-15" type="curve" smooth="yes"/>
      <point x="464" y="-15"/>
      <point x="550" y="22"/>
      <point x="615" y="93" type="curve"/>
      <point x="615" y="0" type="line"/>
    </contour>
  </outline>
</glyph>
<glyph name="v" format="2">
  <advance width="797"/>
  <unicode hex="0076"/>
  <note>
v
</note>
  <outline>
    <contour>
      <point x="202" y="500" type="line"/>
      <point x="401" y="141" type="line"/>
      <point x="589" y="500" type="line"/>
      <point x="779" y="500" type="line"/>
      <point x="496" y="0" type="line"/>
      <point x="306" y="0" type="line"/>
      <point x="12" y="500" type="line"/>
    </contour>
  </outline>
</glyph>
<glyph name="w" format="2">
  <advance width="1140"/>
  <unicode hex="0077"/>
  <note>
w
</note>
  <outline>
    <contour>
      <point x="168" y="500" type="line"/>
      <point x="-18" y="500" type="line"/>
      <point x="226" y="0" type="line"/>
      <point x="416" y="0" type="line"/>
      <point x="567" y="366" type="line"/>
      <point x="726" y="0" type="line"/>
      <point x="916" y="0" type="line"/>
      <point x="1139" y="500" type="line"/>
      <point x="953" y="500" type="line"/>
      <point x="815" y="161" type="line"/>
      <point x="662" y="500" type="line"/>
      <point x="469" y="500" type="line"/>
      <point x="327" y="161" type="line"/>
    </contour>
  </outline>
</glyph>
<glyph name="x" format="2">
  <advance width="786"/>
  <unicode hex="0078"/>
  <note>
x
</note>
  <outline>
    <contour>
      <point x="356" y="327" type="line"/>
      <point x="467" y="245" type="line"/>
      <point x="730" y="500" type="line"/>
      <point x="528" y="500" type="line"/>
    </contour>
    <contour>
      <point x="408" y="184" type="line"/>
      <point x="295" y="267" type="line"/>
      <point x="18" y="0" type="line"/>
      <point x="219" y="0" type="line"/>
    </contour>
    <contour>
      <point x="736" y="0" type="line"/>
      <point x="225" y="500" type="line"/>
      <point x="16" y="500" type="line"/>
      <point x="525" y="0" type="line"/>
    </contour>
  </outline>
</glyph>
<glyph name="y" format="2">
  <advance width="795"/>
  <unicode hex="0079"/>
  <note>
y
</note>
  <anchor x="398" y="0" name="bottom"/>
  <anchor x="398" y="500" name="top"/>
  <outline>
    <contour>
      <point x="402" y="131" type="line"/>
      <point x="184" y="500" type="line"/>
      <point x="10" y="500" type="line"/>
      <point x="13" y="495" type="line"/>
      <point x="322" y="-13" type="line"/>
    </contour>
    <contour>
      <point x="322" y="20" type="line" smooth="yes"/>
      <point x="280" y="-60"/>
      <point x="250" y="-118"/>
      <point x="177" y="-118" type="curve" smooth="yes"/>
      <point x="161" y="-118"/>
      <point x="139" y="-113"/>
      <point x="116" y="-101" type="curve"/>
      <point x="78" y="-222" type="line"/>
      <point x="109" y="-240"/>
      <point x="151" y="-250"/>
      <point x="192" y="-250" type="curve" smooth="yes"/>
      <point x="306" y="-250"/>
      <point x="376" y="-189"/>
      <point x="440" y="-67" type="curve" smooth="yes"/>
      <point x="735" y="500" type="line"/>
      <point x="572" y="500" type="line"/>
    </contour>
  </outline>
</glyph>
<glyph name="z" format="2">
  <advance width="776"/>
  <unicode hex="007A"/>
  <note>
z
</note>
  <anchor x="388" y="0" name="bottom"/>
  <anchor x="388" y="250" name="center"/>
  <anchor x="388" y="500" name="top"/>
  <outline>
    <contour>
      <point x="706" y="0" type="line"/>
      <point x="706" y="117" type="line"/>
      <point x="300" y="117" type="line"/>
      <point x="699" y="402" type="line"/>
      <point x="699" y="500" type="line"/>
      <point x="60" y="500" type="line"/>
      <point x="60" y="383" type="line"/>
      <point x="463" y="383" type="line"/>
      <point x="67" y="98" type="line"/>
      <point x="67" y="0" type="line"/>
    </contour>
  </outline>
</glyph>
<glyph name="braceleft" format="2">
  <advance width="541"/>
  <unicode hex="007B"/>
  <note>
braceleft
</note>
  <outline>
    <contour>
      <point x="348" y="-250" type="curve" smooth="yes"/>
      <point x="521" y="-250" type="line"/>
      <point x="521" y="-134" type="line"/>
      <point x="374" y="-134" type="line" smooth="yes"/>
      <point x="356" y="-134"/>
      <point x="347" y="-124"/>
      <point x="347" y="-103" type="curve" smooth="yes"/>
      <point x="347" y="53" type="line" smooth="yes"/>
      <point x="347" y="165"/>
      <point x="312" y="228"/>
      <point x="220" y="258" type="curve"/>
      <point x="312" y="287"/>
      <point x="347" y="350"/>
      <point x="347" y="462" type="curve" smooth="yes"/>
      <point x="347" y="618" type="line" smooth="yes"/>
      <point x="347" y="639"/>
      <point x="356" y="649"/>
      <point x="374" y="649" type="curve" smooth="yes"/>
      <point x="521" y="649" type="line"/>
      <point x="521" y="765" type="line"/>
      <point x="348" y="765" type="line" smooth="yes"/>
      <point x="249" y="765"/>
      <point x="188" y="707"/>
      <point x="188" y="615" type="curve" smooth="yes"/>
      <point x="188" y="440" type="line" smooth="yes"/>
      <point x="188" y="369"/>
      <point x="148" y="321"/>
      <point x="75" y="321" type="curve" smooth="yes"/>
      <point x="50" y="321" type="line"/>
      <point x="50" y="194" type="line"/>
      <point x="75" y="194" type="line" smooth="yes"/>
      <point x="148" y="194"/>
      <point x="188" y="146"/>
      <point x="188" y="75" type="curve" smooth="yes"/>
      <point x="188" y="-100" type="line" smooth="yes"/>
      <point x="188" y="-192"/>
      <point x="249" y="-250"/>
    </contour>
  </outline>
</glyph>
<glyph name="bar" format="2">
  <advance width="275"/>
  <unicode hex="007C"/>
  <note>
bar
</note>
  <outline>
    <contour>
      <point x="65" y="750" type="line"/>
      <point x="65" y="-170" type="line"/>
      <point x="210" y="-170" type="line"/>
      <point x="210" y="750" type="line"/>
    </contour>
  </outline>
</glyph>
<glyph name="asciitilde" format="2">
  <advance width="600"/>
  <unicode hex="007E"/>
  <note>
asciitilde
</note>
  <outline>
    <contour>
      <point x="422" y="197" type="curve" smooth="yes"/>
      <point x="510" y="197"/>
      <point x="570" y="265"/>
      <point x="567" y="375" type="curve"/>
      <point x="446" y="375" type="line"/>
      <point x="446" y="329"/>
      <point x="436" y="308"/>
      <point x="405" y="308" type="curve" smooth="yes"/>
      <point x="354" y="308"/>
      <point x="248" y="375"/>
      <point x="165" y="375" type="curve" smooth="yes"/>
      <point x="75" y="375"/>
      <point x="10" y="304"/>
      <point x="15" y="197" type="curve"/>
      <point x="136" y="197" type="line"/>
      <point x="138" y="241"/>
      <point x="160" y="262"/>
      <point x="196" y="262" type="curve" smooth="yes"/>
      <point x="234" y="262"/>
      <point x="352" y="197"/>
    </contour>
  </outline>
</glyph>
<glyph name="cent" format="2">
  <advance width="703"/>
  <unicode hex="00A2"/>
  <note>
cent
</note>
  <outline>
    <component base="c"/>
    <contour>
      <point x="338" y="-118" type="line"/>
      <point x="446" y="-118" type="line"/>
      <point x="446" y="617" type="line"/>
      <point x="338" y="617" type="line"/>
    </contour>
  </outline>
</glyph>
<glyph name="sterling" format="2">
  <advance width="770"/>
  <unicode hex="00A3"/>
  <note>
sterling
</note>
  <outline>
    <contour>
      <point x="36" y="125" type="line"/>
      <point x="36" y="0" type="line"/>
      <point x="713" y="0" type="line"/>
      <point x="713" y="125" type="line"/>
      <point x="278" y="125" type="line"/>
      <point x="300" y="144"/>
      <point x="322" y="173"/>
      <point x="322" y="228" type="curve" smooth="yes"/>
      <point x="322" y="301"/>
      <point x="249" y="409"/>
      <point x="249" y="482" type="curve" smooth="yes"/>
      <point x="249" y="561"/>
      <point x="319" y="601"/>
      <point x="410" y="601" type="curve" smooth="yes"/>
      <point x="482" y="601"/>
      <point x="547" y="578"/>
      <point x="651" y="500" type="curve"/>
      <point x="722" y="591" type="line"/>
      <point x="652" y="655"/>
      <point x="545" y="715"/>
      <point x="405" y="715" type="curve" smooth="yes"/>
      <point x="225" y="715"/>
      <point x="92" y="642"/>
      <point x="85" y="498" type="curve" smooth="yes"/>
      <point x="78" y="366"/>
      <point x="166" y="302"/>
      <point x="166" y="212" type="curve" smooth="yes"/>
      <point x="166" y="132"/>
      <point x="124" y="125"/>
      <point x="83" y="125" type="curve" smooth="yes"/>
    </contour>
    <contour>
      <point x="616" y="379" type="line"/>
      <point x="40" y="379" type="line"/>
      <point x="40" y="251" type="line"/>
      <point x="616" y="251" type="line"/>
    </contour>
  </outline>
</glyph>
<glyph name="currency" format="2">
  <advance width="600"/>
  <unicode hex="00A4"/>
  <note>
currency
</note>
  <outline>
    <contour>
      <point x="302" y="73" type="curve" smooth="yes"/>
      <point x="458" y="73"/>
      <point x="559" y="175"/>
      <point x="559" y="300" type="curve" smooth="yes"/>
      <point x="559" y="424"/>
      <point x="458" y="526"/>
      <point x="302" y="526" type="curve" smooth="yes"/>
      <point x="146" y="526"/>
      <point x="45" y="424"/>
      <point x="45" y="300" type="curve" smooth="yes"/>
      <point x="45" y="175"/>
      <point x="146" y="73"/>
    </contour>
    <contour>
      <point x="302" y="186" type="curve" smooth="yes"/>
      <point x="209" y="186"/>
      <point x="163" y="236"/>
      <point x="163" y="300" type="curve" smooth="yes"/>
      <point x="163" y="363"/>
      <point x="209" y="413"/>
      <point x="302" y="413" type="curve" smooth="yes"/>
      <point x="395" y="413"/>
      <point x="441" y="363"/>
      <point x="441" y="300" type="curve" smooth="yes"/>
      <point x="441" y="236"/>
      <point x="395" y="186"/>
    </contour>
    <contour>
      <point x="133" y="385" type="line"/>
      <point x="224" y="461" type="line"/>
      <point x="105" y="580" type="line"/>
      <point x="22" y="496" type="line"/>
    </contour>
    <contour>
      <point x="379" y="460" type="line"/>
      <point x="483" y="397" type="line"/>
      <point x="583" y="497" type="line"/>
      <point x="499" y="580" type="line"/>
    </contour>
    <contour>
      <point x="467" y="218" type="line"/>
      <point x="380" y="138" type="line"/>
      <point x="499" y="19" type="line"/>
      <point x="582" y="103" type="line"/>
    </contour>
    <contour>
      <point x="223" y="137" type="line"/>
      <point x="124" y="205" type="line"/>
      <point x="22" y="103" type="line"/>
      <point x="106" y="20" type="line"/>
    </contour>
  </outline>
</glyph>
<glyph name="yen" format="2">
  <advance width="942"/>
  <unicode hex="00A5"/>
  <note>
yen
</note>
  <outline>
    <contour>
      <point x="902" y="700" type="line"/>
      <point x="701" y="700" type="line"/>
      <point x="473" y="403" type="line"/>
      <point x="243" y="700" type="line"/>
      <point x="40" y="700" type="line"/>
      <point x="387" y="253" type="line"/>
      <point x="387" y="0" type="line"/>
      <point x="558" y="0" type="line"/>
      <point x="558" y="253" type="line"/>
    </contour>
    <contour>
      <point x="439" y="391" type="line"/>
      <point x="160" y="391" type="line"/>
      <point x="160" y="293" type="line"/>
      <point x="439" y="293" type="line"/>
    </contour>
    <contour>
      <point x="786" y="201" type="line"/>
      <point x="160" y="201" type="line"/>
      <point x="160" y="103" type="line"/>
      <point x="786" y="103" type="line"/>
    </contour>
    <contour>
      <point x="786" y="391" type="line"/>
      <point x="507" y="391" type="line"/>
      <point x="507" y="293" type="line"/>
      <point x="786" y="293" type="line"/>
    </contour>
  </outline>
</glyph>
<glyph name="section" format="2">
  <advance width="767"/>
  <unicode hex="00A7"/>
  <note>
section
</note>
  <outline>
    <contour>
      <point x="669" y="610" type="line"/>
      <point x="577" y="650"/>
      <point x="484" y="672"/>
      <point x="360" y="672" type="curve" smooth="yes"/>
      <point x="177" y="672"/>
      <point x="55" y="614"/>
      <point x="55" y="507" type="curve" smooth="yes"/>
      <point x="55" y="458"/>
      <point x="75" y="419"/>
      <point x="118" y="391" type="curve"/>
      <point x="78" y="363"/>
      <point x="55" y="326"/>
      <point x="55" y="280" type="curve" smooth="yes"/>
      <point x="55" y="187"/>
      <point x="130" y="132"/>
      <point x="295" y="116" type="curve" smooth="yes"/>
      <point x="432" y="103" type="line" smooth="yes"/>
      <point x="515" y="95"/>
      <point x="556" y="85"/>
      <point x="556" y="56" type="curve" smooth="yes"/>
      <point x="556" y="14"/>
      <point x="457" y="10"/>
      <point x="377" y="10" type="curve" smooth="yes"/>
      <point x="283" y="10"/>
      <point x="185" y="33"/>
      <point x="100" y="81" type="curve"/>
      <point x="51" y="-24" type="line"/>
      <point x="167" y="-79"/>
      <point x="271" y="-105"/>
      <point x="388" y="-105" type="curve" smooth="yes"/>
      <point x="589" y="-105"/>
      <point x="704" y="-47"/>
      <point x="704" y="64" type="curve" smooth="yes"/>
      <point x="704" y="111"/>
      <point x="681" y="147"/>
      <point x="638" y="172" type="curve"/>
      <point x="681" y="204"/>
      <point x="704" y="247"/>
      <point x="704" y="301" type="curve" smooth="yes"/>
      <point x="704" y="396"/>
      <point x="612" y="437"/>
      <point x="452" y="450" type="curve" smooth="yes"/>
      <point x="317" y="461" type="line" smooth="yes"/>
      <point x="277" y="464"/>
      <point x="208" y="474"/>
      <point x="208" y="516" type="curve" smooth="yes"/>
      <point x="208" y="562"/>
      <point x="290" y="560"/>
      <point x="341" y="560" type="curve" smooth="yes"/>
      <point x="397" y="560"/>
      <point x="514" y="551"/>
      <point x="627" y="512" type="curve"/>
    </contour>
    <contour>
      <point x="208" y="299" type="curve" smooth="yes"/>
      <point x="208" y="326"/>
      <point x="237" y="345"/>
      <point x="268" y="350" type="curve"/>
      <point x="432" y="332" type="line" smooth="yes"/>
      <point x="514" y="323"/>
      <point x="556" y="322"/>
      <point x="556" y="283" type="curve" smooth="yes"/>
      <point x="556" y="243"/>
      <point x="522" y="223"/>
      <point x="481" y="216" type="curve"/>
      <point x="317" y="234" type="line" smooth="yes"/>
      <point x="277" y="238"/>
      <point x="208" y="247"/>
    </contour>
  </outline>
</glyph>
<glyph name="copyright" format="2">
  <advance width="1126"/>
  <unicode hex="00A9"/>
  <note>
copyright
</note>
  <outline>
    <contour>
      <point x="563" y="-14" type="curve" smooth="yes"/>
      <point x="837" y="-14"/>
      <point x="1036" y="134"/>
      <point x="1036" y="353" type="curve" smooth="yes"/>
      <point x="1036" y="572"/>
      <point x="837" y="717"/>
      <point x="563" y="717" type="curve" smooth="yes"/>
      <point x="289" y="717"/>
      <point x="90" y="572"/>
      <point x="90" y="353" type="curve" smooth="yes"/>
      <point x="90" y="134"/>
      <point x="289" y="-14"/>
    </contour>
    <contour>
      <point x="222" y="353" type="curve" smooth="yes"/>
      <point x="222" y="518"/>
      <point x="355" y="613"/>
      <point x="563" y="613" type="curve" smooth="yes"/>
      <point x="771" y="613"/>
      <point x="904" y="518"/>
      <point x="904" y="353" type="curve" smooth="yes"/>
      <point x="904" y="190"/>
      <point x="771" y="92"/>
      <point x="563" y="92" type="curve" smooth="yes"/>
      <point x="355" y="92"/>
      <point x="222" y="190"/>
    </contour>
    <component base="c" xScale="0.6922" yScale="0.6922" xOffset="299" yOffset="185"/>
  </outline>
</glyph>
<glyph name="logicalnot" format="2">
  <advance width="740"/>
  <unicode hex="00AC"/>
  <note>
logicalnot
</note>
  <outline>
    <contour>
      <point x="60" y="271" type="line"/>
      <point x="680" y="271" type="line"/>
      <point x="680" y="399" type="line"/>
      <point x="60" y="399" type="line"/>
    </contour>
    <contour>
      <point x="534" y="399" type="line"/>
      <point x="534" y="25" type="line"/>
      <point x="682" y="25" type="line"/>
      <point x="682" y="399" type="line"/>
    </contour>
  </outline>
</glyph>
<glyph name="registered" format="2">
  <advance width="600"/>
  <unicode hex="00AE"/>
  <note>
registered
</note>
  <outline>
    <contour>
      <point x="304" y="294" type="curve" smooth="yes"/>
      <point x="466" y="294"/>
      <point x="583" y="389"/>
      <point x="583" y="529" type="curve" smooth="yes"/>
      <point x="583" y="670"/>
      <point x="466" y="765"/>
      <point x="304" y="765" type="curve" smooth="yes"/>
      <point x="142" y="765"/>
      <point x="25" y="670"/>
      <point x="25" y="529" type="curve" smooth="yes"/>
      <point x="25" y="389"/>
      <point x="142" y="294"/>
    </contour>
    <contour>
      <point x="103" y="529" type="curve" smooth="yes"/>
      <point x="103" y="637"/>
      <point x="181" y="700"/>
      <point x="304" y="700" type="curve" smooth="yes"/>
      <point x="426" y="700"/>
      <point x="505" y="637"/>
      <point x="505" y="529" type="curve" smooth="yes"/>
      <point x="505" y="421"/>
      <point x="426" y="358"/>
      <point x="304" y="358" type="curve" smooth="yes"/>
      <point x="181" y="358"/>
      <point x="103" y="421"/>
    </contour>
    <contour>
      <point x="321" y="502" type="curve" smooth="yes"/>
      <point x="248" y="502" type="line"/>
      <point x="248" y="430" type="line"/>
      <point x="192" y="430" type="line"/>
      <point x="192" y="645" type="line"/>
      <point x="321" y="646" type="line" smooth="yes"/>
      <point x="397" y="647"/>
      <point x="433" y="621"/>
      <point x="433" y="575" type="curve" smooth="yes"/>
      <point x="433" y="515"/>
      <point x="375" y="502"/>
    </contour>
    <contour>
      <point x="249" y="545" type="line"/>
      <point x="326" y="545" type="line" smooth="yes"/>
      <point x="361" y="545"/>
      <point x="374" y="553"/>
      <point x="374" y="575" type="curve" smooth="yes"/>
      <point x="374" y="597"/>
      <point x="361" y="603"/>
      <point x="326" y="603" type="curve" smooth="yes"/>
      <point x="249" y="603" type="line"/>
    </contour>
    <contour>
      <point x="365" y="430" type="line"/>
      <point x="280" y="538" type="line"/>
      <point x="347" y="538" type="line"/>
      <point x="430" y="432" type="line"/>
      <point x="430" y="430" type="line"/>
    </contour>
  </outline>
</glyph>
<glyph name="degree" format="2">
  <advance width="466"/>
  <unicode hex="00B0"/>
  <note>
degree
</note>
  <outline>
    <contour>
      <point x="233" y="460" type="curve" smooth="yes"/>
      <point x="333" y="460"/>
      <point x="406" y="524"/>
      <point x="406" y="613" type="curve" smooth="yes"/>
      <point x="406" y="702"/>
      <point x="333" y="765"/>
      <point x="233" y="765" type="curve" smooth="yes"/>
      <point x="133" y="765"/>
      <point x="60" y="702"/>
      <point x="60" y="613" type="curve" smooth="yes"/>
      <point x="60" y="524"/>
      <point x="133" y="460"/>
    </contour>
    <contour>
      <point x="140" y="613" type="curve" smooth="yes"/>
      <point x="140" y="664"/>
      <point x="183" y="699"/>
      <point x="233" y="699" type="curve" smooth="yes"/>
      <point x="283" y="699"/>
      <point x="326" y="664"/>
      <point x="326" y="613" type="curve" smooth="yes"/>
      <point x="326" y="561"/>
      <point x="283" y="526"/>
      <point x="233" y="526" type="curve" smooth="yes"/>
      <point x="183" y="526"/>
      <point x="140" y="561"/>
    </contour>
  </outline>
</glyph>
<glyph name="plusminus" format="2">
  <advance width="740"/>
  <unicode hex="00B1"/>
  <note>
plusminus
</note>
  <outline>
    <contour>
      <point x="60" y="340" type="line"/>
      <point x="680" y="340" type="line"/>
      <point x="680" y="468" type="line"/>
      <point x="60" y="468" type="line"/>
    </contour>
    <contour>
      <point x="444" y="201" type="line"/>
      <point x="444" y="611" type="line"/>
      <point x="296" y="611" type="line"/>
      <point x="296" y="201" type="line"/>
    </contour>
    <component base="minus" yOffset="-245"/>
  </outline>
</glyph>
<glyph name="twosuperior" format="2">
  <advance width="528"/>
  <unicode hex="00B2"/>
  <outline>
    <contour>
      <point x="57" y="471"/>
      <point x="57" y="320" type="curve"/>
      <point x="451" y="320" type="line"/>
      <point x="451" y="403" type="line"/>
      <point x="190" y="403" type="line"/>
      <point x="190" y="427"/>
      <point x="220" y="440"/>
      <point x="292" y="458" type="curve" smooth="yes"/>
      <point x="352" y="473"/>
      <point x="447" y="484"/>
      <point x="447" y="582" type="curve" smooth="yes"/>
      <point x="447" y="659"/>
      <point x="374" y="700"/>
      <point x="261" y="700" type="curve" smooth="yes"/>
      <point x="188" y="700"/>
      <point x="126" y="682"/>
      <point x="68" y="653" type="curve"/>
      <point x="71" y="575" type="line"/>
      <point x="121" y="603"/>
      <point x="180" y="623"/>
      <point x="248" y="623" type="curve" smooth="yes"/>
      <point x="305" y="623"/>
      <point x="334" y="612"/>
      <point x="334" y="580" type="curve" smooth="yes"/>
      <point x="334" y="552"/>
      <point x="325" y="543"/>
      <point x="240" y="517" type="curve" smooth="yes"/>
      <point x="156" y="491"/>
    </contour>
  </outline>
</glyph>
<glyph name="threesuperior" format="2">
  <advance width="534"/>
  <unicode hex="00B3"/>
  <outline>
    <contour>
      <point x="242" y="315" type="curve" smooth="yes"/>
      <point x="377" y="315"/>
      <point x="462" y="362"/>
      <point x="462" y="427" type="curve" smooth="yes"/>
      <point x="462" y="476"/>
      <point x="439" y="505"/>
      <point x="370" y="514" type="curve"/>
      <point x="436" y="536"/>
      <point x="448" y="563"/>
      <point x="448" y="592" type="curve" smooth="yes"/>
      <point x="448" y="665"/>
      <point x="369" y="700"/>
      <point x="251" y="700" type="curve" smooth="yes"/>
      <point x="175" y="700"/>
      <point x="107" y="679"/>
      <point x="66" y="661" type="curve"/>
      <point x="78" y="589" type="line"/>
      <point x="125" y="606"/>
      <point x="182" y="621"/>
      <point x="261" y="621" type="curve" smooth="yes"/>
      <point x="336" y="621"/>
      <point x="349" y="608"/>
      <point x="349" y="586" type="curve" smooth="yes"/>
      <point x="349" y="556"/>
      <point x="327" y="547"/>
      <point x="250" y="547" type="curve" smooth="yes"/>
      <point x="173" y="547" type="line"/>
      <point x="173" y="472" type="line"/>
      <point x="250" y="472" type="line" smooth="yes"/>
      <point x="327" y="472"/>
      <point x="355" y="472"/>
      <point x="355" y="438" type="curve" smooth="yes"/>
      <point x="355" y="411"/>
      <point x="322" y="396"/>
      <point x="253" y="396" type="curve" smooth="yes"/>
      <point x="171" y="396"/>
      <point x="124" y="408"/>
      <point x="83" y="428" type="curve"/>
      <point x="66" y="351" type="line"/>
      <point x="118" y="327"/>
      <point x="171" y="315"/>
    </contour>
  </outline>
</glyph>
<glyph name="micro" format="2">
  <advance width="883"/>
  <unicode hex="00B5"/>
  <outline>
    <component base="u"/>
    <contour>
      <point x="247" y="268" type="line"/>
      <point x="70" y="268" type="line"/>
      <point x="70" y="-230" type="line"/>
      <point x="247" y="-230" type="line"/>
    </contour>
  </outline>
</glyph>
<glyph name="paragraph" format="2">
  <advance width="600"/>
  <unicode hex="00B6"/>
  <note>
paragraph
</note>
  <outline>
    <contour>
      <point x="351" y="-200" type="line"/>
      <point x="486" y="-200" type="line"/>
      <point x="486" y="700" type="line"/>
      <point x="351" y="700" type="line"/>
    </contour>
    <contour>
      <point x="151" y="-200" type="line"/>
      <point x="286" y="-200" type="line"/>
      <point x="286" y="700" type="line"/>
      <point x="151" y="700" type="line"/>
    </contour>
    <contour>
      <point x="152" y="319" type="curve"/>
      <point x="152" y="700" type="line"/>
      <point x="36" y="700"/>
      <point x="-49" y="615"/>
      <point x="-49" y="510" type="curve" smooth="yes"/>
      <point x="-49" y="404"/>
      <point x="36" y="319"/>
    </contour>
  </outline>
</glyph>
<glyph name="onesuperior" format="2">
  <advance width="334"/>
  <unicode hex="00B9"/>
  <outline>
    <contour>
      <point x="128" y="594" type="curve"/>
      <point x="128" y="321" type="line"/>
      <point x="234" y="321" type="line"/>
      <point x="234" y="700" type="line"/>
      <point x="153" y="700" type="line"/>
      <point x="104" y="657"/>
      <point x="47" y="628"/>
      <point x="-20" y="619" type="curve"/>
      <point x="-20" y="527" type="line"/>
      <point x="47" y="538"/>
      <point x="98" y="563"/>
    </contour>
  </outline>
</glyph>
<glyph name="AE" format="2">
  <advance width="1477"/>
  <unicode hex="00C6"/>
  <note>
AE
</note>
  <outline>
    <contour>
      <point x="766" y="161" type="line"/>
      <point x="706" y="279" type="line"/>
      <point x="292" y="279" type="line"/>
      <point x="232" y="161" type="line"/>
    </contour>
    <contour>
      <point x="689" y="578" type="line"/>
      <point x="689" y="0" type="line"/>
      <point x="689" y="0" type="line"/>
      <point x="689" y="700" type="line"/>
      <point x="594" y="700" type="line"/>
      <point x="0" y="0" type="line"/>
      <point x="197" y="0" type="line"/>
    </contour>
    <contour>
      <point x="687" y="700" type="line"/>
      <point x="687" y="0" type="line"/>
      <point x="1387" y="0" type="line"/>
      <point x="1387" y="140" type="line"/>
      <point x="862" y="140" type="line"/>
      <point x="862" y="291" type="line"/>
      <point x="1250" y="291" type="line"/>
      <point x="1250" y="431" type="line"/>
      <point x="862" y="431" type="line"/>
      <point x="862" y="560" type="line"/>
      <point x="1379" y="560" type="line"/>
      <point x="1379" y="700" type="line"/>
    </contour>
  </outline>
</glyph>
<glyph name="Eth" format="2">
  <advance width="1128"/>
  <unicode hex="00D0"/>
  <note>
Eth
</note>
  <outline>
    <component base="D" xOffset="105"/>
    <contour>
      <point x="542" y="277" type="line"/>
      <point x="542" y="404" type="line"/>
      <point x="80" y="404" type="line"/>
      <point x="80" y="277" type="line"/>
    </contour>
  </outline>
</glyph>
<glyph name="multiply" format="2">
  <advance width="653"/>
  <unicode hex="00D7"/>
  <note>
multiply
</note>
  <outline>
    <contour>
      <point x="327" y="230" type="line"/>
      <point x="505" y="51" type="line"/>
      <point x="603" y="149" type="line"/>
      <point x="425" y="328" type="line"/>
      <point x="603" y="506" type="line"/>
      <point x="505" y="604" type="line"/>
      <point x="327" y="426" type="line"/>
      <point x="148" y="604" type="line"/>
      <point x="50" y="506" type="line"/>
      <point x="229" y="328" type="line"/>
      <point x="50" y="149" type="line"/>
      <point x="148" y="51" type="line"/>
    </contour>
  </outline>
</glyph>
<glyph name="Oslash" format="2">
  <advance width="1057"/>
  <unicode hex="00D8"/>
  <note>
Oslash
</note>
  <outline>
    <component base="O"/>
    <contour>
      <point x="913" y="765" type="line"/>
      <point x="774" y="765" type="line"/>
      <point x="176" y="-77" type="line"/>
      <point x="316" y="-77" type="line"/>
    </contour>
  </outline>
</glyph>
<glyph name="Thorn" format="2">
  <advance width="963"/>
  <unicode hex="00DE"/>
  <note>
Thorn
</note>
  <outline>
    <contour>
      <point x="100" y="0" type="line"/>
      <point x="272" y="0" type="line"/>
      <point x="272" y="121" type="line"/>
      <point x="521" y="121" type="line" smooth="yes"/>
      <point x="776" y="121"/>
      <point x="903" y="199"/>
      <point x="903" y="356" type="curve" smooth="yes"/>
      <point x="903" y="512"/>
      <point x="776" y="590"/>
      <point x="521" y="590" type="curve" smooth="yes"/>
      <point x="100" y="590" type="line"/>
    </contour>
    <contour>
      <point x="275" y="246" type="line"/>
      <point x="275" y="466" type="line"/>
      <point x="541" y="466" type="line" smooth="yes"/>
      <point x="657" y="466"/>
      <point x="713" y="433"/>
      <point x="713" y="356" type="curve" smooth="yes"/>
      <point x="713" y="279"/>
      <point x="657" y="246"/>
      <point x="541" y="246" type="curve" smooth="yes"/>
    </contour>
    <contour>
      <point x="100" y="700" type="line"/>
      <point x="100" y="466" type="line"/>
      <point x="272" y="466" type="line"/>
      <point x="272" y="700" type="line"/>
    </contour>
  </outline>
</glyph>
<glyph name="germandbls" format="2">
  <advance width="780"/>
  <unicode hex="00DF"/>
  <note>
germandbls
</note>
  <outline>
    <contour>
      <point x="446" y="263" type="curve" smooth="yes"/>
      <point x="562" y="214" type="line" smooth="yes"/>
      <point x="600" y="198"/>
      <point x="607" y="175"/>
      <point x="607" y="162" type="curve" smooth="yes"/>
      <point x="607" y="131"/>
      <point x="583" y="110"/>
      <point x="543" y="110" type="curve" smooth="yes"/>
      <point x="509" y="110"/>
      <point x="427" y="123"/>
      <point x="352" y="191" type="curve"/>
      <point x="277" y="96" type="line"/>
      <point x="363" y="11"/>
      <point x="477" y="-15"/>
      <point x="564" y="-15" type="curve" smooth="yes"/>
      <point x="665" y="-15"/>
      <point x="765" y="43"/>
      <point x="765" y="154" type="curve" smooth="yes"/>
      <point x="765" y="251"/>
      <point x="674" y="301"/>
      <point x="642" y="315" type="curve" smooth="yes"/>
      <point x="583" y="340" type="line" smooth="yes"/>
      <point x="533" y="361"/>
      <point x="497" y="372"/>
      <point x="497" y="393" type="curve" smooth="yes"/>
      <point x="497" y="443"/>
      <point x="643" y="457"/>
      <point x="643" y="586" type="curve" smooth="yes"/>
      <point x="643" y="702"/>
      <point x="507" y="764"/>
      <point x="354" y="764" type="curve" smooth="yes"/>
      <point x="160" y="764"/>
      <point x="60" y="634"/>
      <point x="60" y="472" type="curve" smooth="yes"/>
      <point x="60" y="0" type="line"/>
      <point x="225" y="0" type="line"/>
      <point x="222" y="462" type="line" smooth="yes"/>
      <point x="221" y="598"/>
      <point x="304" y="637"/>
      <point x="368" y="637" type="curve" smooth="yes"/>
      <point x="414" y="637"/>
      <point x="475" y="620"/>
      <point x="475" y="567" type="curve" smooth="yes"/>
      <point x="475" y="496"/>
      <point x="334" y="473"/>
      <point x="334" y="375" type="curve" smooth="yes"/>
      <point x="334" y="310"/>
      <point x="405" y="280"/>
    </contour>
  </outline>
</glyph>
<glyph name="ae" format="2">
  <advance width="1295"/>
  <unicode hex="00E6"/>
  <note>
ae
</note>
  <outline>
    <component base="e" xScale="0.97" xOffset="520"/>
    <contour>
      <point x="565" y="219" type="line"/>
      <point x="565" y="159" type="line"/>
      <point x="524" y="118"/>
      <point x="444" y="90"/>
      <point x="364" y="90" type="curve" smooth="yes"/>
      <point x="288" y="90"/>
      <point x="250" y="110"/>
      <point x="250" y="153" type="curve" smooth="yes"/>
      <point x="250" y="214"/>
      <point x="348" y="219"/>
      <point x="437" y="219" type="curve" smooth="yes"/>
    </contour>
    <contour>
      <point x="70" y="136" type="curve" smooth="yes"/>
      <point x="70" y="34"/>
      <point x="172" y="-15"/>
      <point x="318" y="-15" type="curve" smooth="yes"/>
      <point x="396" y="-15"/>
      <point x="553" y="17"/>
      <point x="625" y="103" type="curve" smooth="yes"/>
      <point x="725" y="222" type="line"/>
      <point x="725" y="431"/>
      <point x="611" y="515"/>
      <point x="397" y="515" type="curve" smooth="yes"/>
      <point x="276" y="515"/>
      <point x="143" y="475"/>
      <point x="71" y="416" type="curve"/>
      <point x="111" y="296" type="line"/>
      <point x="203" y="363"/>
      <point x="300" y="390"/>
      <point x="397" y="390" type="curve" smooth="yes"/>
      <point x="509" y="390"/>
      <point x="565" y="354"/>
      <point x="565" y="298" type="curve"/>
      <point x="413" y="297" type="line" smooth="yes"/>
      <point x="275" y="296"/>
      <point x="70" y="269"/>
    </contour>
  </outline>
</glyph>
<glyph name="eth" format="2">
  <advance width="904"/>
  <unicode hex="00F0"/>
  <note>
eth
</note>
  <outline>
    <contour>
      <point x="633" y="227" type="curve" smooth="yes"/>
      <point x="633" y="145"/>
      <point x="572" y="112"/>
      <point x="415" y="112" type="curve" smooth="yes"/>
      <point x="272" y="112"/>
      <point x="208" y="145"/>
      <point x="208" y="227" type="curve" smooth="yes"/>
      <point x="208" y="298"/>
      <point x="272" y="328"/>
      <point x="415" y="328" type="curve" smooth="yes"/>
      <point x="572" y="328"/>
      <point x="633" y="298"/>
    </contour>
    <contour>
      <point x="231" y="578" type="line"/>
      <point x="231" y="509" type="line"/>
      <point x="781" y="661" type="line"/>
      <point x="781" y="730" type="line"/>
    </contour>
    <contour>
      <point x="372" y="750" type="curve"/>
      <point x="223" y="711" type="line"/>
      <point x="441" y="639"/>
      <point x="665" y="533"/>
      <point x="665" y="374" type="curve"/>
      <point x="608" y="432"/>
      <point x="513" y="451"/>
      <point x="401" y="451" type="curve" smooth="yes"/>
      <point x="173" y="451"/>
      <point x="43" y="371"/>
      <point x="43" y="224" type="curve" smooth="yes"/>
      <point x="43" y="64"/>
      <point x="182" y="-20"/>
      <point x="425" y="-20" type="curve" smooth="yes"/>
      <point x="688" y="-20"/>
      <point x="824" y="93"/>
      <point x="824" y="307" type="curve" smooth="yes"/>
      <point x="824" y="539"/>
      <point x="622" y="690"/>
    </contour>
  </outline>
</glyph>
<glyph name="thorn" format="2">
  <advance width="832"/>
  <unicode hex="00FE"/>
  <note>
thorn
</note>
  <outline>
    <contour>
      <point x="50" y="-250" type="line"/>
      <point x="228" y="-250" type="line"/>
      <point x="228" y="57" type="line"/>
      <point x="286" y="3"/>
      <point x="384" y="-15"/>
      <point x="466" y="-15" type="curve" smooth="yes"/>
      <point x="658" y="-15"/>
      <point x="789" y="93"/>
      <point x="789" y="251" type="curve" smooth="yes"/>
      <point x="789" y="409"/>
      <point x="657" y="515"/>
      <point x="466" y="515" type="curve" smooth="yes"/>
      <point x="385" y="515"/>
      <point x="288" y="487"/>
      <point x="228" y="438" type="curve"/>
      <point x="228" y="750" type="line"/>
      <point x="50" y="750" type="line"/>
    </contour>
    <contour>
      <point x="228" y="162" type="curve"/>
      <point x="228" y="334" type="line"/>
      <point x="290" y="366"/>
      <point x="363" y="390"/>
      <point x="440" y="390" type="curve" smooth="yes"/>
      <point x="559" y="390"/>
      <point x="615" y="351"/>
      <point x="615" y="250" type="curve" smooth="yes"/>
      <point x="615" y="149"/>
      <point x="557" y="110"/>
      <point x="440" y="110" type="curve" smooth="yes"/>
      <point x="363" y="110"/>
      <point x="290" y="126"/>
    </contour>
  </outline>
</glyph>
<glyph name="dcroat" format="2">
  <advance width="842"/>
  <unicode hex="0111"/>
  <note>
dcroat
</note>
  <outline>
    <component base="d"/>
    <contour>
      <point x="446" y="565" type="line"/>
      <point x="845" y="565" type="line"/>
      <point x="845" y="675" type="line"/>
      <point x="446" y="675" type="line"/>
    </contour>
  </outline>
</glyph>
<glyph name="Hbar" format="2">
  <advance width="1190"/>
  <unicode hex="0126"/>
  <outline>
    <component base="H" xOffset="74"/>
    <contour>
      <point x="100" y="619" type="line"/>
      <point x="100" y="519" type="line"/>
      <point x="1090" y="519" type="line"/>
      <point x="1090" y="619" type="line"/>
    </contour>
  </outline>
</glyph>
<glyph name="hbar" format="2">
  <advance width="887"/>
  <unicode hex="0127"/>
  <outline>
    <component base="h" xOffset="59"/>
    <contour>
      <point x="55" y="669" type="line"/>
      <point x="55" y="569" type="line"/>
      <point x="525" y="569" type="line"/>
      <point x="525" y="669" type="line"/>
    </contour>
  </outline>
</glyph>
<glyph name="idotless" format="2">
  <advance width="338"/>
  <unicode hex="0131"/>
  <note>
dotlessi
</note>
  <anchor x="169" y="0" name="bottom"/>
  <anchor x="258" y="0" name="ogonek"/>
  <anchor x="169" y="500" name="top"/>
  <outline>
    <contour>
      <point x="80" y="500" type="line"/>
      <point x="80" y="0" type="line"/>
      <point x="258" y="0" type="line"/>
      <point x="258" y="500" type="line"/>
    </contour>
  </outline>
</glyph>
<glyph name="Lslash" format="2">
  <advance width="866"/>
  <unicode hex="0141"/>
  <note>
Lslash
</note>
  <outline>
    <component base="L"/>
    <contour>
      <point x="14" y="196" type="line"/>
      <point x="434" y="384" type="line"/>
      <point x="391" y="487" type="line"/>
      <point x="-29" y="299" type="line"/>
    </contour>
  </outline>
</glyph>
<glyph name="lslash" format="2">
  <advance width="506"/>
  <unicode hex="0142"/>
  <note>
lslash
</note>
  <outline>
    <component base="l" xOffset="95"/>
    <contour>
      <point x="96" y="217" type="line"/>
      <point x="476" y="425" type="line"/>
      <point x="415" y="528" type="line"/>
      <point x="35" y="320" type="line"/>
    </contour>
  </outline>
</glyph>
<glyph name="OE" format="2">
  <advance width="1563"/>
  <unicode hex="0152"/>
  <note>
OE
</note>
  <outline>
    <contour>
      <point x="773" y="700" type="line"/>
      <point x="773" y="0" type="line"/>
      <point x="1473" y="0" type="line"/>
      <point x="1473" y="140" type="line"/>
      <point x="948" y="140" type="line"/>
      <point x="948" y="291" type="line"/>
      <point x="1336" y="291" type="line"/>
      <point x="1336" y="431" type="line"/>
      <point x="948" y="431" type="line"/>
      <point x="948" y="560" type="line"/>
      <point x="1465" y="560" type="line"/>
      <point x="1465" y="700" type="line"/>
    </contour>
    <contour>
      <point x="499" y="-15" type="curve" smooth="yes"/>
      <point x="724" y="-15"/>
      <point x="947" y="104"/>
      <point x="947" y="353" type="curve" smooth="yes"/>
      <point x="947" y="588"/>
      <point x="718" y="715"/>
      <point x="499" y="715" type="curve" smooth="yes"/>
      <point x="274" y="715"/>
      <point x="50" y="587"/>
      <point x="50" y="353" type="curve" smooth="yes"/>
      <point x="50" y="98"/>
      <point x="278" y="-15"/>
    </contour>
    <contour>
      <point x="223" y="350" type="curve" smooth="yes"/>
      <point x="223" y="496"/>
      <point x="312" y="575"/>
      <point x="499" y="575" type="curve" smooth="yes"/>
      <point x="687" y="575"/>
      <point x="774" y="496"/>
      <point x="774" y="350" type="curve" smooth="yes"/>
      <point x="774" y="189"/>
      <point x="687" y="125"/>
      <point x="499" y="125" type="curve" smooth="yes"/>
      <point x="312" y="125"/>
      <point x="223" y="189"/>
    </contour>
  </outline>
</glyph>
<glyph name="oe" format="2">
  <advance width="1379"/>
  <unicode hex="0153"/>
  <note>
oe
</note>
  <anchor x="420" y="0" name="bottom"/>
  <anchor x="420" y="250" name="center"/>
  <anchor x="760" y="10" name="ogonek"/>
  <anchor x="420" y="500" name="top"/>
  <anchor x="825" y="500" name="topright"/>
  <outline>
    <contour>
      <point x="420" y="515" type="curve" smooth="yes"/>
      <point x="194" y="515"/>
      <point x="43" y="403"/>
      <point x="43" y="250" type="curve" smooth="yes"/>
      <point x="43" y="70"/>
      <point x="234" y="-15"/>
      <point x="420" y="-15" type="curve" smooth="yes"/>
      <point x="547" y="-15"/>
      <point x="689" y="26"/>
      <point x="757" y="121" type="curve"/>
      <point x="756" y="378" type="line"/>
      <point x="697" y="461"/>
      <point x="576" y="515"/>
    </contour>
    <contour>
      <point x="217" y="250" type="curve" smooth="yes"/>
      <point x="217" y="341"/>
      <point x="281" y="383"/>
      <point x="420" y="383" type="curve" smooth="yes"/>
      <point x="559" y="383"/>
      <point x="623" y="341"/>
      <point x="623" y="250" type="curve" smooth="yes"/>
      <point x="623" y="157"/>
      <point x="559" y="117"/>
      <point x="420" y="117" type="curve" smooth="yes"/>
      <point x="281" y="117"/>
      <point x="217" y="157"/>
    </contour>
    <component base="e" xOffset="581" identifier="62204801"/>
  </outline>
</glyph>
<glyph name="Schwa" format="2">
  <advance width="1095"/>
  <unicode hex="018F"/>
  <anchor x="256" y="200" name="bottom"/>
  <anchor x="43" y="690" name="ogonek"/>
  <anchor x="256" y="700" name="top"/>
  <outline>
    <contour>
      <point x="861" y="464"/>
      <point x="861" y="364" type="curve" smooth="yes"/>
      <point x="861" y="168"/>
      <point x="736" y="123"/>
      <point x="586" y="123" type="curve" smooth="yes"/>
      <point x="431" y="123"/>
      <point x="272" y="145"/>
      <point x="272" y="302" type="curve"/>
      <point x="882" y="302" type="line"/>
      <point x="882" y="419" type="line"/>
      <point x="90" y="419" type="line"/>
      <point x="90" y="359" type="line" smooth="yes"/>
      <point x="90" y="190"/>
      <point x="223" y="-16"/>
      <point x="572" y="-16" type="curve" smooth="yes"/>
      <point x="895" y="-16"/>
      <point x="1045" y="170"/>
      <point x="1045" y="348" type="curve" smooth="yes"/>
      <point x="1045" y="551"/>
      <point x="850" y="715"/>
      <point x="557" y="715" type="curve" smooth="yes"/>
      <point x="417" y="715"/>
      <point x="275" y="660"/>
      <point x="212" y="604" type="curve"/>
      <point x="300" y="472" type="line"/>
      <point x="350" y="543"/>
      <point x="458" y="574"/>
      <point x="557" y="574" type="curve" smooth="yes"/>
      <point x="801" y="574"/>
    </contour>
  </outline>
</glyph>
<glyph name="florin" format="2">
  <advance width="650"/>
  <unicode hex="0192"/>
  <note>
florin
</note>
  <outline>
    <contour>
      <point x="531" y="346" type="line"/>
      <point x="531" y="466" type="line"/>
      <point x="40" y="466" type="line"/>
      <point x="40" y="346" type="line"/>
    </contour>
    <contour>
      <point x="162" y="210" type="line" smooth="yes"/>
      <point x="162" y="136"/>
      <point x="117" y="118"/>
      <point x="76" y="118" type="curve" smooth="yes"/>
      <point x="46" y="118"/>
      <point x="10" y="135"/>
      <point x="-21" y="164" type="curve"/>
      <point x="-56" y="37" type="line"/>
      <point x="-19" y="5"/>
      <point x="42" y="-14"/>
      <point x="97" y="-14" type="curve" smooth="yes"/>
      <point x="241" y="-14"/>
      <point x="330" y="66"/>
      <point x="330" y="200" type="curve" smooth="yes"/>
      <point x="330" y="500" type="line" smooth="yes"/>
      <point x="330" y="608"/>
      <point x="385" y="637"/>
      <point x="449" y="637" type="curve" smooth="yes"/>
      <point x="496" y="637"/>
      <point x="542" y="620"/>
      <point x="573" y="591" type="curve"/>
      <point x="607" y="713" type="line"/>
      <point x="570" y="745"/>
      <point x="500" y="764"/>
      <point x="425" y="764" type="curve" smooth="yes"/>
      <point x="231" y="764"/>
      <point x="162" y="654"/>
      <point x="162" y="500" type="curve" smooth="yes"/>
    </contour>
  </outline>
</glyph>
<glyph name="jdotless" format="2">
  <advance width="428"/>
  <unicode hex="0237"/>
  <note>
uni0237
</note>
  <anchor x="300" y="-270" name="bottom"/>
  <anchor x="290" y="500" name="top"/>
  <outline>
    <contour>
      <point x="378" y="34" type="curve" smooth="yes"/>
      <point x="378" y="500" type="line"/>
      <point x="200" y="500" type="line"/>
      <point x="200" y="26" type="line" smooth="yes"/>
      <point x="200" y="-59"/>
      <point x="160" y="-106"/>
      <point x="51" y="-100" type="curve"/>
      <point x="53" y="-250" type="line"/>
      <point x="273" y="-250"/>
      <point x="378" y="-184"/>
    </contour>
  </outline>
</glyph>
<glyph name="gravecomb" format="2">
  <advance width="412"/>
  <unicode hex="0300"/>
  <note>
grave
</note>
  <anchor x="270" y="500" name="_top"/>
  <anchor x="206" y="700" name="top"/>
  <outline>
    <contour>
      <point x="360" y="571" type="line"/>
      <point x="243" y="740" type="line"/>
      <point x="42" y="740" type="line"/>
      <point x="40" y="737" type="line"/>
      <point x="202" y="571" type="line"/>
    </contour>
  </outline>
</glyph>
<glyph name="circumflexcomb" format="2">
  <advance width="776"/>
  <unicode hex="0302"/>
  <note>
circumflex
</note>
  <anchor x="388" y="500" name="_top"/>
  <anchor x="388" y="730" name="top"/>
  <outline>
    <contour>
      <point x="389" y="652" type="line"/>
      <point x="464" y="571" type="line"/>
      <point x="637" y="571" type="line"/>
      <point x="479" y="730" type="line"/>
      <point x="297" y="730" type="line"/>
      <point x="139" y="571" type="line"/>
      <point x="314" y="571" type="line"/>
    </contour>
  </outline>
</glyph>
<glyph name="tildecomb" format="2">
  <advance width="732"/>
  <unicode hex="0303"/>
  <note>
tilde
</note>
  <anchor x="366" y="500" name="_top"/>
  <anchor x="366" y="728" name="top"/>
  <outline>
    <contour>
      <point x="462" y="571" type="curve" smooth="yes"/>
      <point x="550" y="571"/>
      <point x="610" y="637"/>
      <point x="607" y="739" type="curve"/>
      <point x="486" y="739" type="line"/>
      <point x="486" y="701"/>
      <point x="476" y="680"/>
      <point x="447" y="680" type="curve" smooth="yes"/>
      <point x="394" y="680"/>
      <point x="358" y="745"/>
      <point x="275" y="745" type="curve" smooth="yes"/>
      <point x="185" y="745"/>
      <point x="120" y="677"/>
      <point x="125" y="576" type="curve"/>
      <point x="246" y="576" type="line"/>
      <point x="248" y="614"/>
      <point x="270" y="636"/>
      <point x="293" y="636" type="curve" smooth="yes"/>
      <point x="344" y="636"/>
      <point x="392" y="571"/>
    </contour>
  </outline>
</glyph>
<glyph name="macroncomb" format="2">
  <advance width="662"/>
  <unicode hex="0304"/>
  <note>
macron
</note>
  <anchor x="326" y="500" name="_top"/>
  <anchor x="326" y="730" name="top"/>
  <outline>
    <contour>
      <point x="110" y="730" type="line"/>
      <point x="110" y="617" type="line"/>
      <point x="542" y="617" type="line"/>
      <point x="542" y="730" type="line"/>
    </contour>
  </outline>
</glyph>
<glyph name="brevecomb" format="2">
  <advance width="692"/>
  <unicode hex="0306"/>
  <note>
breve
</note>
  <anchor x="346" y="500" name="_top"/>
  <anchor x="346" y="730" name="top"/>
  <outline>
    <contour>
      <point x="335" y="666" type="curve" smooth="yes"/>
      <point x="297" y="666"/>
      <point x="272" y="687"/>
      <point x="264" y="730" type="curve"/>
      <point x="114" y="730" type="line"/>
      <point x="114" y="671"/>
      <point x="177" y="559"/>
      <point x="331" y="559" type="curve" smooth="yes"/>
      <point x="486" y="559"/>
      <point x="548" y="671"/>
      <point x="558" y="730" type="curve"/>
      <point x="406" y="730" type="line"/>
      <point x="399" y="687"/>
      <point x="374" y="666"/>
    </contour>
  </outline>
</glyph>
<glyph name="dotaccentcomb" format="2">
  <advance width="278"/>
  <unicode hex="0307"/>
  <note>
dotaccent
</note>
  <anchor x="139" y="500" name="_top"/>
  <anchor x="139" y="745" name="top"/>
  <outline>
    <contour>
      <point x="139" y="577" type="curve" smooth="yes"/>
      <point x="76" y="577"/>
      <point x="37" y="610"/>
      <point x="37" y="671" type="curve" smooth="yes"/>
      <point x="37" y="732"/>
      <point x="76" y="765"/>
      <point x="139" y="765" type="curve" smooth="yes"/>
      <point x="202" y="765"/>
      <point x="241" y="732"/>
      <point x="241" y="671" type="curve" smooth="yes"/>
      <point x="241" y="610"/>
      <point x="202" y="577"/>
    </contour>
  </outline>
</glyph>
<glyph name="ringcomb" format="2">
  <advance width="518"/>
  <unicode hex="030A"/>
  <note>
ring
</note>
  <anchor x="259" y="500" name="_top"/>
  <anchor x="259" y="745" name="top"/>
  <outline>
    <contour>
      <point x="259" y="552" type="curve" smooth="yes"/>
      <point x="373" y="552"/>
      <point x="427" y="596"/>
      <point x="427" y="661" type="curve" smooth="yes"/>
      <point x="427" y="726"/>
      <point x="373" y="768"/>
      <point x="259" y="768" type="curve" smooth="yes"/>
      <point x="145" y="768"/>
      <point x="91" y="726"/>
      <point x="91" y="661" type="curve" smooth="yes"/>
      <point x="91" y="596"/>
      <point x="145" y="552"/>
    </contour>
    <contour>
      <point x="197" y="661" type="curve" smooth="yes"/>
      <point x="197" y="684"/>
      <point x="216" y="701"/>
      <point x="259" y="701" type="curve" smooth="yes"/>
      <point x="302" y="701"/>
      <point x="321" y="684"/>
      <point x="321" y="661" type="curve" smooth="yes"/>
      <point x="321" y="638"/>
      <point x="302" y="619"/>
      <point x="259" y="619" type="curve" smooth="yes"/>
      <point x="216" y="619"/>
      <point x="197" y="638"/>
    </contour>
  </outline>
</glyph>
<glyph name="commaaccentcomb" format="2">
  <advance width="300"/>
  <unicode hex="0326"/>
  <anchor x="135" y="20" name="_bottom"/>
  <anchor x="135" y="-284" name="bottom"/>
  <outline>
    <contour>
      <point x="96" y="-284" type="line"/>
      <point x="169" y="-284" type="line"/>
      <point x="189" y="-234" type="line" smooth="yes"/>
      <point x="205" y="-195"/>
      <point x="217" y="-158"/>
      <point x="217" y="-120" type="curve" smooth="yes"/>
      <point x="217" y="-72"/>
      <point x="186" y="-42"/>
      <point x="137" y="-42" type="curve" smooth="yes"/>
      <point x="85" y="-42"/>
      <point x="52" y="-72"/>
      <point x="52" y="-120" type="curve" smooth="yes"/>
      <point x="52" y="-165"/>
      <point x="81" y="-194"/>
      <point x="128" y="-194" type="curve"/>
    </contour>
  </outline>
</glyph>
<glyph name="cedillacomb" format="2">
  <advance width="389"/>
  <unicode hex="0327"/>
  <note>
cedilla
</note>
  <anchor x="235" y="0" name="_bottom"/>
  <anchor x="195" y="-186" name="bottom"/>
  <outline>
    <contour>
      <point x="396" y="-141" type="curve" smooth="yes"/>
      <point x="396" y="-89"/>
      <point x="356" y="-54"/>
      <point x="298" y="-54" type="curve" smooth="yes"/>
      <point x="267" y="-54"/>
      <point x="252" y="-63"/>
      <point x="244" y="-72" type="curve"/>
      <point x="236" y="-72" type="line"/>
      <point x="281" y="4" type="line"/>
      <point x="170" y="4" type="line"/>
      <point x="93" y="-150" type="line"/>
      <point x="193" y="-150" type="line"/>
      <point x="211" y="-119"/>
      <point x="225" y="-112"/>
      <point x="240" y="-112" type="curve" smooth="yes"/>
      <point x="256" y="-112"/>
      <point x="270" y="-121"/>
      <point x="270" y="-141" type="curve" smooth="yes"/>
      <point x="270" y="-176"/>
      <point x="223" y="-185"/>
      <point x="132" y="-184" type="curve"/>
      <point x="133" y="-270" type="line"/>
      <point x="351" y="-272"/>
      <point x="396" y="-206"/>
    </contour>
  </outline>
</glyph>
<glyph name="ogonekcomb" format="2">
  <advance width="430"/>
  <unicode hex="0328"/>
  <note>
ogonek
</note>
  <anchor x="380" y="-15" name="_ogonek"/>
  <outline>
    <contour>
      <point x="244" y="-270" type="curve" smooth="yes"/>
      <point x="313" y="-270"/>
      <point x="352" y="-261"/>
      <point x="380" y="-252" type="curve"/>
      <point x="380" y="-140" type="line"/>
      <point x="346" y="-150"/>
      <point x="314" y="-155"/>
      <point x="297" y="-155" type="curve" smooth="yes"/>
      <point x="256" y="-155"/>
      <point x="232" y="-137"/>
      <point x="232" y="-110" type="curve" smooth="yes"/>
      <point x="232" y="-62"/>
      <point x="326" y="-33"/>
      <point x="380" y="-15" type="curve"/>
      <point x="201" y="-15" type="line"/>
      <point x="109" y="-49"/>
      <point x="70" y="-85"/>
      <point x="70" y="-146" type="curve" smooth="yes"/>
      <point x="70" y="-217"/>
      <point x="139" y="-270"/>
    </contour>
  </outline>
</glyph>
<glyph name="Germandbls" format="2">
  <advance width="948"/>
  <unicode hex="1E9E"/>
  <outline>
    <contour>
      <point x="404" y="380" type="line"/>
      <point x="593" y="378" type="line"/>
      <point x="846" y="573" type="line"/>
      <point x="846" y="700" type="line"/>
      <point x="344" y="700" type="line" smooth="yes"/>
      <point x="150" y="700"/>
      <point x="60" y="570"/>
      <point x="60" y="408" type="curve" smooth="yes"/>
      <point x="60" y="0" type="line"/>
      <point x="225" y="0" type="line"/>
      <point x="222" y="398" type="line" smooth="yes"/>
      <point x="221" y="534"/>
      <point x="294" y="573"/>
      <point x="428" y="573" type="curve" smooth="yes"/>
      <point x="665" y="573" type="line"/>
    </contour>
    <contour>
      <point x="466" y="264" type="line"/>
      <point x="500" y="286"/>
      <point x="534" y="302"/>
      <point x="597" y="302" type="curve" smooth="yes"/>
      <point x="687" y="302"/>
      <point x="741" y="273"/>
      <point x="741" y="201" type="curve" smooth="yes"/>
      <point x="741" y="137"/>
      <point x="687" y="101"/>
      <point x="597" y="101" type="curve" smooth="yes"/>
      <point x="528" y="101"/>
      <point x="498" y="117"/>
      <point x="466" y="138" type="curve"/>
      <point x="413" y="41" type="line"/>
      <point x="454" y="9"/>
      <point x="510" y="-15"/>
      <point x="605" y="-15" type="curve" smooth="yes"/>
      <point x="776" y="-15"/>
      <point x="888" y="77"/>
      <point x="888" y="201" type="curve" smooth="yes"/>
      <point x="888" y="323"/>
      <point x="777" y="415"/>
      <point x="606" y="415" type="curve" smooth="yes"/>
      <point x="512" y="415"/>
      <point x="446" y="411"/>
      <point x="404" y="381" type="curve"/>
    </contour>
  </outline>
</glyph>
<glyph name="emdash" format="2">
  <advance width="944"/>
  <unicode hex="2014"/>
  <note>
emdash
</note>
  <outline>
    <contour>
      <point x="0" y="317" type="line"/>
      <point x="0" y="232" type="line"/>
      <point x="944" y="232" type="line"/>
      <point x="944" y="317" type="line"/>
    </contour>
  </outline>
</glyph>
<glyph name="quotesinglbase" format="2">
  <advance width="293"/>
  <unicode hex="201A"/>
  <note>
quotesinglbase
</note>
  <outline>
    <contour>
      <point x="79" y="-115" type="line"/>
      <point x="155" y="-115" type="line"/>
      <point x="186" y="-54" type="line" smooth="yes"/>
      <point x="203" y="-21"/>
      <point x="225" y="28"/>
      <point x="225" y="69" type="curve" smooth="yes"/>
      <point x="225" y="114"/>
      <point x="192" y="155"/>
      <point x="137" y="155" type="curve" smooth="yes"/>
      <point x="86" y="155"/>
      <point x="44" y="123"/>
      <point x="44" y="69" type="curve" smooth="yes"/>
      <point x="44" y="8"/>
      <point x="93" y="-11"/>
      <point x="127" y="-11" type="curve"/>
    </contour>
  </outline>
</glyph>
<glyph name="dagger" format="2">
  <advance width="641"/>
  <unicode hex="2020"/>
  <note>
dagger
</note>
  <outline>
    <contour>
      <point x="253" y="750" type="line"/>
      <point x="253" y="0" type="line"/>
      <point x="388" y="0" type="line"/>
      <point x="388" y="750" type="line"/>
    </contour>
    <contour>
      <point x="581" y="594" type="line"/>
      <point x="446" y="589" type="line"/>
      <point x="321" y="569" type="line"/>
      <point x="195" y="588" type="line"/>
      <point x="60" y="593" type="line"/>
      <point x="60" y="458" type="line"/>
      <point x="195" y="463" type="line"/>
      <point x="321" y="483" type="line"/>
      <point x="446" y="464" type="line"/>
      <point x="581" y="459" type="line"/>
    </contour>
  </outline>
</glyph>
<glyph name="perthousand" format="2">
  <advance width="1554"/>
  <unicode hex="2030"/>
  <note>
perthousand
</note>
  <outline>
    <contour>
      <point x="174" y="1" type="line"/>
      <point x="337" y="1" type="line"/>
      <point x="902" y="700" type="line"/>
      <point x="739" y="700" type="line"/>
    </contour>
    <component base="zerosuperior" xScale="0.8264" yScale="0.8264" xOffset="47" yOffset="135"/>
    <component base="zerosuperior" xScale="0.8264" yScale="0.8264" xOffset="557" yOffset="-265"/>
    <component base="zerosuperior" xScale="0.8264" yScale="0.8264" xOffset="1034" yOffset="-265"/>
  </outline>
</glyph>
<glyph name="guilsinglleft" format="2">
  <advance width="434"/>
  <unicode hex="2039"/>
  <note>
guilsinglleft
</note>
  <outline>
    <contour>
      <point x="60" y="196" type="line"/>
      <point x="384" y="6" type="line"/>
      <point x="384" y="166" type="line"/>
      <point x="237" y="256" type="line"/>
      <point x="384" y="346" type="line"/>
      <point x="384" y="506" type="line"/>
      <point x="60" y="316" type="line"/>
    </contour>
  </outline>
</glyph>
<glyph name="fraction" format="2">
  <advance width="130"/>
  <unicode hex="2044"/>
  <note>
fraction
</note>
  <outline>
    <contour>
      <point x="411" y="686" type="line"/>
      <point x="293" y="686" type="line"/>
      <point x="-281" y="-59" type="line"/>
      <point x="-163" y="-59" type="line"/>
    </contour>
  </outline>
</glyph>
<glyph name="zerosuperior" format="2">
  <advance width="585"/>
  <unicode hex="2070"/>
  <outline>
    <contour>
      <point x="290" y="311" type="curve" smooth="yes"/>
      <point x="455" y="311"/>
      <point x="545" y="381"/>
      <point x="545" y="507" type="curve" smooth="yes"/>
      <point x="545" y="632"/>
      <point x="455" y="700"/>
      <point x="290" y="700" type="curve" smooth="yes"/>
      <point x="129" y="700"/>
      <point x="40" y="632"/>
      <point x="40" y="507" type="curve" smooth="yes"/>
      <point x="40" y="381"/>
      <point x="129" y="311"/>
    </contour>
    <contour>
      <point x="159" y="506" type="curve" smooth="yes"/>
      <point x="159" y="573"/>
      <point x="206" y="610"/>
      <point x="290" y="610" type="curve" smooth="yes"/>
      <point x="378" y="610"/>
      <point x="426" y="574"/>
      <point x="426" y="508" type="curve" smooth="yes"/>
      <point x="426" y="439"/>
      <point x="378" y="401"/>
      <point x="290" y="401" type="curve" smooth="yes"/>
      <point x="206" y="401"/>
      <point x="159" y="438"/>
    </contour>
  </outline>
</glyph>
<glyph name="foursuperior" format="2">
  <advance width="543"/>
  <unicode hex="2074"/>
  <outline>
    <contour>
      <point x="151" y="470" type="line"/>
      <point x="306" y="600" type="line"/>
      <point x="306" y="470" type="line"/>
    </contour>
    <contour>
      <point x="20" y="398" type="line"/>
      <point x="306" y="398" type="line"/>
      <point x="306" y="313" type="line"/>
      <point x="404" y="313" type="line"/>
      <point x="404" y="398" type="line"/>
      <point x="498" y="398" type="line"/>
      <point x="498" y="470" type="line"/>
      <point x="404" y="470" type="line"/>
      <point x="404" y="700" type="line"/>
      <point x="310" y="700" type="line"/>
      <point x="20" y="467" type="line"/>
    </contour>
  </outline>
</glyph>
<glyph name="Euro" format="2">
  <advance width="992"/>
  <unicode hex="20AC"/>
  <note>
Euro
</note>
  <outline>
    <component base="C" xOffset="110"/>
    <contour>
      <point x="70" y="482" type="line"/>
      <point x="50" y="382" type="line"/>
      <point x="606" y="382" type="line"/>
      <point x="626" y="482" type="line"/>
    </contour>
    <contour>
      <point x="70" y="315" type="line"/>
      <point x="50" y="215" type="line"/>
      <point x="606" y="215" type="line"/>
      <point x="626" y="315" type="line"/>
    </contour>
  </outline>
</glyph>
<glyph name="trademark" format="2">
  <advance width="1378"/>
  <unicode hex="2122"/>
  <note>
trademark
</note>
  <outline>
    <contour>
      <point x="70" y="655" type="line"/>
      <point x="272" y="655" type="line"/>
      <point x="272" y="298" type="line"/>
      <point x="390" y="298" type="line"/>
      <point x="390" y="655" type="line"/>
      <point x="593" y="655" type="line"/>
      <point x="593" y="750" type="line"/>
      <point x="70" y="750" type="line"/>
    </contour>
    <contour>
      <point x="674" y="298" type="line"/>
      <point x="786" y="298" type="line"/>
      <point x="786" y="599" type="line"/>
      <point x="948" y="298" type="line"/>
      <point x="1031" y="298" type="line"/>
      <point x="1196" y="599" type="line"/>
      <point x="1196" y="298" type="line"/>
      <point x="1308" y="298" type="line"/>
      <point x="1308" y="750" type="line"/>
      <point x="1170" y="750" type="line"/>
      <point x="990" y="416" type="line"/>
      <point x="814" y="750" type="line"/>
      <point x="674" y="750" type="line"/>
    </contour>
  </outline>
</glyph>
<glyph name="minus" format="2">
  <advance width="740"/>
  <unicode hex="2212"/>
  <note>
minus
</note>
  <outline>
    <contour>
      <point x="60" y="271" type="line"/>
      <point x="680" y="271" type="line"/>
      <point x="680" y="399" type="line"/>
      <point x="60" y="399" type="line"/>
    </contour>
  </outline>
</glyph>
<glyph name="notequal" format="2">
  <advance width="740"/>
  <unicode hex="2260"/>
  <note>
notequal
</note>
  <outline>
    <component base="equal"/>
    <contour>
      <point x="515" y="611" type="line"/>
      <point x="147" y="91" type="line"/>
      <point x="235" y="26" type="line"/>
      <point x="603" y="546" type="line"/>
    </contour>
  </outline>
</glyph>
<glyph name="greaterequal" format="2">
  <advance width="650"/>
  <unicode hex="2265"/>
  <note>
greaterequal
</note>
  <outline>
    <contour>
      <point x="20" y="348" type="line"/>
      <point x="20" y="211" type="line"/>
      <point x="640" y="337" type="line"/>
      <point x="640" y="485" type="line"/>
      <point x="20" y="611" type="line"/>
      <point x="20" y="475" type="line"/>
      <point x="414" y="411" type="line"/>
      <point x="413" y="418" type="line"/>
    </contour>
    <contour>
      <point x="20" y="21" type="line"/>
      <point x="640" y="21" type="line"/>
      <point x="640" y="149" type="line"/>
      <point x="20" y="149" type="line"/>
    </contour>
  </outline>
</glyph>
<glyph name="fi" format="2">
  <advance width="842"/>
  <unicode hex="FB01"/>
  <anchor x="706" y="500" name="_top"/>
  <anchor x="795" y="0" name="ogonek"/>
  <anchor x="706" y="745" name="top"/>
  <outline>
    <contour>
      <point x="574" y="712" type="line"/>
      <point x="530" y="745"/>
      <point x="460" y="764"/>
      <point x="385" y="764" type="curve" smooth="yes"/>
      <point x="188" y="764"/>
      <point x="112" y="662"/>
      <point x="111" y="500" type="curve"/>
      <point x="20" y="500" type="line"/>
      <point x="20" y="380" type="line"/>
      <point x="111" y="380" type="line"/>
      <point x="111" y="0" type="line"/>
      <point x="276" y="0" type="line"/>
      <point x="278" y="380" type="line"/>
      <point x="772" y="380" type="line"/>
      <point x="772" y="500" type="line"/>
      <point x="278" y="500" type="line"/>
      <point x="280" y="609"/>
      <point x="340" y="637"/>
      <point x="407" y="637" type="curve" smooth="yes"/>
      <point x="456" y="637"/>
      <point x="502" y="620"/>
      <point x="533" y="591" type="curve"/>
    </contour>
    <contour>
      <point x="597" y="500" type="line"/>
      <point x="597" y="0" type="line"/>
      <point x="775" y="0" type="line"/>
      <point x="775" y="500" type="line"/>
    </contour>
  </outline>
</glyph>
<glyph name="caroncomb.alt" format="2">
  <advance width="242"/>
  <anchor x="30" y="730" name="_topright"/>
  <outline>
    <contour>
      <point x="222" y="745" type="line"/>
      <point x="67" y="745" type="line"/>
      <point x="50" y="543" type="line"/>
      <point x="167" y="543" type="line"/>
    </contour>
  </outline>
</glyph>
<glyph name="f_f" format="2">
  <advance width="1054"/>
  <outline>
    <contour>
      <point x="628" y="380" type="line"/>
      <point x="278" y="380" type="line"/>
      <point x="276" y="0" type="line"/>
      <point x="111" y="0" type="line"/>
      <point x="111" y="380" type="line"/>
      <point x="20" y="380" type="line"/>
      <point x="20" y="500" type="line"/>
      <point x="111" y="500" type="line"/>
      <point x="112" y="662"/>
      <point x="188" y="764"/>
      <point x="385" y="764" type="curve" smooth="yes"/>
      <point x="460" y="764"/>
      <point x="530" y="745"/>
      <point x="574" y="712" type="curve"/>
      <point x="533" y="591" type="line"/>
      <point x="502" y="620"/>
      <point x="456" y="637"/>
      <point x="407" y="637" type="curve" smooth="yes"/>
      <point x="340" y="637"/>
      <point x="280" y="609"/>
      <point x="278" y="500" type="curve"/>
      <point x="628" y="500" type="line"/>
      <point x="629" y="662"/>
      <point x="705" y="764"/>
      <point x="902" y="764" type="curve" smooth="yes"/>
      <point x="977" y="764"/>
      <point x="1047" y="745"/>
      <point x="1091" y="712" type="curve"/>
      <point x="1050" y="591" type="line"/>
      <point x="1019" y="620"/>
      <point x="973" y="637"/>
      <point x="924" y="637" type="curve" smooth="yes"/>
      <point x="857" y="637"/>
      <point x="797" y="609"/>
      <point x="795" y="500" type="curve"/>
      <point x="1028" y="500" type="line"/>
      <point x="1028" y="380" type="line"/>
      <point x="795" y="380" type="line"/>
      <point x="793" y="0" type="line"/>
      <point x="628" y="0" type="line"/>
    </contour>
  </outline>
</glyph>
